<?xml version="1.0" encoding="UTF-8" standalone="no"?>
<svg
   version="1.1"
   width="96"
   height="96"
   style="fill:#221f1f"
   id="svg1936"
   sodipodi:docname="amazon.svg"
   inkscape:version="1.2.1 (9c6d41e4, 2022-07-14)"
   xmlns:inkscape="http://www.inkscape.org/namespaces/inkscape"
   xmlns:sodipodi="http://sodipodi.sourceforge.net/DTD/sodipodi-0.dtd"
   xmlns:xlink="http://www.w3.org/1999/xlink"
   xmlns="http://www.w3.org/2000/svg"
   xmlns:svg="http://www.w3.org/2000/svg">
  <defs
     id="defs13" />
  <sodipodi:namedview
     id="namedview11"
     pagecolor="#ffffff"
     bordercolor="#666666"
     borderopacity="1.0"
     inkscape:showpageshadow="2"
     inkscape:pageopacity="0.0"
     inkscape:pagecheckerboard="0"
     inkscape:deskcolor="#d1d1d1"
     showgrid="false"
     inkscape:zoom="3.68"
     inkscape:cx="87.907609"
     inkscape:cy="45.516304"
     inkscape:window-width="1250"
     inkscape:window-height="655"
     inkscape:window-x="0"
     inkscape:window-y="25"
     inkscape:window-maximized="0"
     inkscape:current-layer="svg1936" />
  <rect
     style="fill:none;stroke-width:1.24406"
     id="rect358"
     width="96"
     height="96"
     x="0"
     y="0"
     rx="10"
     ry="10" />
  <path
     d="m 57.377278,54.620551 c -4.526728,3.336557 -11.087943,5.116731 -16.737028,5.116731 -7.920928,0 -15.051795,-2.929658 -20.446572,-7.802249 -0.42385,-0.383164 -0.04408,-0.905346 0.464541,-0.606957 5.822016,3.387419 13.020704,5.425295 20.456746,5.425295 5.015002,0 10.531847,-1.037589 15.604496,-3.190751 0.766323,-0.325519 1.407185,0.501839 0.657817,1.057931"
     id="path8"
     style="fill:#ff9900;stroke-width:0.129337" />
  <path
     d="m 59.259178,52.467389 c -0.57644,-0.739196 -3.824833,-0.349253 -5.28288,-0.176321 -0.444198,0.05425 -0.512012,-0.332299 -0.111898,-0.610348 2.587187,-1.820863 6.83248,-1.295288 7.327538,-0.684943 0.495056,0.613738 -0.128851,4.869203 -2.560062,6.900294 -0.372988,0.311955 -0.729023,0.145807 -0.562872,-0.267873 0.545919,-1.363105 1.770002,-4.418222 1.190174,-5.160809"
     id="path10"
     style="fill:#ff9900;stroke-width:0.129337" />
  <path
     d="m 54.078023,38.826168 v -1.770002 c 0,-0.267874 0.203448,-0.447586 0.447586,-0.447586 h 7.924316 c 0.254313,0 0.457762,0.183104 0.457762,0.447586 v 1.515691 c -0.0034,0.254311 -0.217012,0.58661 -0.596785,1.112185 l -4.106267,5.862708 c 1.525865,-0.0373 3.136499,0.189885 4.519948,0.969771 0.311954,0.176321 0.396724,0.434023 0.42046,0.688335 v 1.88868 c 0,0.257702 -0.284828,0.559481 -0.583219,0.403506 -2.437992,-1.278336 -5.676213,-1.417359 -8.371905,0.01356 -0.274655,0.149196 -0.562874,-0.149195 -0.562874,-0.406896 v -1.793738 c 0,-0.288218 0.0034,-0.779888 0.291608,-1.217301 l 4.757304,-6.822306 h -4.140176 c -0.25431,0 -0.457758,-0.179711 -0.457758,-0.444196"
     id="path12"
     style="stroke-width:0.129337;fill:#f2f2f2" />
  <path
     d="M 25.171383,49.870029 H 22.76052 c -0.230573,-0.01695 -0.413678,-0.189883 -0.430633,-0.410288 V 37.086686 c 0,-0.247529 0.206839,-0.444198 0.464541,-0.444198 h 2.248104 c 0.233969,0.01017 0.420461,0.189885 0.437417,0.413678 v 1.617418 h 0.04408 c 0.586609,-1.563165 1.68862,-2.292188 3.173795,-2.292188 1.508909,0 2.451553,0.729023 3.129715,2.292188 0.583219,-1.563165 1.909024,-2.292188 3.329774,-2.292188 1.010461,0 2.115865,0.417069 2.790635,1.352932 0.762932,1.040978 0.606954,2.553278 0.606954,3.879086 l -0.0034,7.80903 c 0,0.247529 -0.206839,0.447585 -0.464541,0.447585 h -2.407475 c -0.240745,-0.01695 -0.434021,-0.210228 -0.434021,-0.447585 v -6.557823 c 0,-0.522184 0.04747,-1.824254 -0.06782,-2.319314 -0.179712,-0.830745 -0.718851,-1.064714 -1.417358,-1.064714 -0.58322,0 -1.193565,0.389944 -1.441094,1.013854 -0.247529,0.623909 -0.223793,1.668275 -0.223793,2.370174 v 6.557823 c 0,0.247529 -0.20684,0.447585 -0.464541,0.447585 h -2.407473 c -0.244137,-0.01695 -0.434023,-0.210228 -0.434023,-0.447585 l -0.0034,-6.557823 c 0,-1.380058 0.227182,-3.411153 -1.485174,-3.411153 -1.732704,0 -1.664888,1.980231 -1.664888,3.411153 v 6.557823 c 0,0.247529 -0.206839,0.447585 -0.464541,0.447585"
     id="path14"
     style="stroke-width:0.129337;fill:#f2f2f2" />
  <path
     d="m 69.729992,36.381396 c 3.577302,0 5.513453,3.072072 5.513453,6.978283 0,3.773968 -2.139601,6.768051 -5.513453,6.768051 -3.512878,0 -5.425295,-3.072071 -5.425295,-6.900293 0,-3.851958 1.936153,-6.846041 5.425295,-6.846041 m 0.02034,2.526153 c -1.776782,0 -1.88868,2.421035 -1.88868,3.929946 0,1.5123 -0.02374,4.740349 1.868336,4.740349 1.868335,0 1.956496,-2.604139 1.956496,-4.19104 0,-1.044367 -0.04408,-2.292184 -0.359427,-3.282302 -0.271265,-0.861263 -0.810401,-1.196953 -1.576725,-1.196953"
     id="path16"
     style="stroke-width:0.129337;fill:#f2f2f2" />
  <path
     d="M 79.882071,49.870029 H 77.48138 c -0.240749,-0.01695 -0.434025,-0.210228 -0.434025,-0.447585 l -0.0034,-12.37645 c 0.02035,-0.227184 0.220403,-0.403506 0.464541,-0.403506 h 2.234544 c 0.210228,0.01017 0.383159,0.152587 0.430632,0.345863 v 1.89207 h 0.04408 c 0.674773,-1.692013 1.620806,-2.499025 3.285693,-2.499025 1.081667,0 2.13621,0.389943 2.814372,1.458047 0.63069,0.990116 0.63069,2.655004 0.63069,3.851957 v 7.788688 c -0.02713,0.21701 -0.227185,0.389941 -0.464539,0.389941 H 84.06633 c -0.220405,-0.01695 -0.403508,-0.179711 -0.427242,-0.389941 v -6.720582 c 0,-1.352932 0.155977,-3.333166 -1.508911,-3.333166 -0.586608,0 -1.125748,0.393336 -1.393622,0.990117 -0.339079,0.756152 -0.383159,1.508911 -0.383159,2.343049 v 6.662938 c -0.0034,0.247529 -0.213621,0.447585 -0.471322,0.447585"
     id="path18"
     style="stroke-width:0.129337;fill:#f2f2f2" />
  <use
     xlink:href="#path30"
     transform="translate(31.605719)"
     id="use28"
     x="0"
     y="0"
     style="fill:#f2f2f2" />
  <path
     d="m 16.155227,43.959852 v -0.522184 c -1.742877,0 -3.584085,0.372989 -3.584085,2.427817 0,1.040978 0.539138,1.746268 1.464829,1.746268 0.678161,0 1.285115,-0.417069 1.668279,-1.095232 0.474711,-0.834139 0.450977,-1.617416 0.450977,-2.556669 m 2.431209,5.876269 c -0.159368,0.142414 -0.389945,0.152586 -0.569657,0.05765 -0.800229,-0.664598 -0.942645,-0.973161 -1.38345,-1.607242 -1.322415,1.349541 -2.258276,1.753045 -3.974027,1.753045 -2.027704,0 -3.6078177,-1.251207 -3.6078177,-3.757012 0,-1.956498 1.0613227,-3.289085 2.5702317,-3.94012 1.308851,-0.576439 3.136497,-0.678162 4.533511,-0.837529 v -0.311955 c 0,-0.573048 0.04408,-1.25121 -0.291609,-1.746265 -0.295003,-0.444198 -0.857875,-0.627301 -1.352934,-0.627301 -0.918907,0 -1.739484,0.471322 -1.939542,1.447874 -0.04069,0.217013 -0.200058,0.430634 -0.417069,0.440807 L 9.8144161,40.457146 c -0.1966673,-0.04408 -0.4136792,-0.203448 -0.3594262,-0.505228 0.5391387,-2.834715 3.0991981,-3.689201 5.3913861,-3.689201 1.173217,0 2.705862,0.311955 3.631552,1.200346 1.173222,1.095231 1.061323,2.556669 1.061323,4.146959 v 3.757015 c 0,1.129141 0.467934,1.624196 0.908739,2.234544 0.155976,0.217009 0.189884,0.478102 -0.0068,0.640861 -0.491667,0.410289 -1.366494,1.173221 -1.847991,1.600462 l -0.0068,-0.0068"
     id="path30"
     style="stroke-width:0.129337;fill:#f2f2f2" />
</svg>
