<?xml version="1.0" encoding="UTF-8" standalone="no"?>
<!-- Created with Inkscape (http://www.inkscape.org/) -->

<svg
   width="96"
   height="96"
   viewBox="0 0 25.4 25.4"
   version="1.1"
   id="svg5"
   xml:space="preserve"
   inkscape:version="1.2.1 (9c6d41e4, 2022-07-14)"
   sodipodi:docname="craigslist.svg"
   xmlns:inkscape="http://www.inkscape.org/namespaces/inkscape"
   xmlns:sodipodi="http://sodipodi.sourceforge.net/DTD/sodipodi-0.dtd"
   xmlns="http://www.w3.org/2000/svg"
   xmlns:svg="http://www.w3.org/2000/svg"><sodipodi:namedview
     id="namedview7"
     pagecolor="#ffffff"
     bordercolor="#000000"
     borderopacity="0.25"
     inkscape:showpageshadow="2"
     inkscape:pageopacity="0.0"
     inkscape:pagecheckerboard="0"
     inkscape:deskcolor="#d1d1d1"
     inkscape:document-units="mm"
     showgrid="false"
     inkscape:zoom="3.3638608"
     inkscape:cx="17.985286"
     inkscape:cy="66.887429"
     inkscape:window-width="1440"
     inkscape:window-height="788"
     inkscape:window-x="0"
     inkscape:window-y="25"
     inkscape:window-maximized="0"
     inkscape:current-layer="layer1" /><defs
     id="defs2" /><g
     inkscape:label="Layer 1"
     inkscape:groupmode="layer"
     id="layer1"><rect
       style="fill:none;stroke-width:1.23426;stroke-linecap:round"
       id="rect356"
       width="25.4"
       height="25.4"
       x="0"
       y="0"
       rx="2.6458333"
       ry="2.6458333" /><path
       style="fill:#5e4aab;fill-opacity:1;stroke-width:0.0644568"
       d="M 11.586648,20.543078 C 9.3825064,20.186749 7.5905569,19.105598 6.2891267,17.346924 5.1369561,15.78996 4.5585102,13.545919 4.8277983,11.677817 5.0927391,9.8398788 5.8258323,8.3619459 7.1071211,7.082677 8.2827813,5.9088774 9.4936812,5.2554198 11.199183,4.8744654 c 0.671829,-0.150067 2.361487,-0.1495199 3.027607,0.00307 1.068854,0.2415051 1.922799,0.5880402 2.742434,1.1129129 2.917661,1.8683723 4.287202,5.3791697 3.402046,8.7210977 -0.566916,2.140413 -2.016231,3.958848 -3.981445,4.995448 -0.68511,0.361383 -1.763209,0.733098 -2.32402,0.801298 -0.212499,0.02582 -0.444317,0.0581 -0.51515,0.07174 -0.459285,0.08829 -1.29371,0.07343 -1.964007,-0.03483 z m 0.321966,-3.709098 c 0,-1.14529 -0.015,-2.097356 -0.03332,-2.115718 -0.03443,-0.03452 -2.9931836,2.9126 -2.9931836,2.981393 0,0.121758 0.9999656,0.690896 1.6420396,0.934575 0.458506,0.174023 1.248438,0.356367 1.33617,0.308456 0.02657,-0.01448 0.04829,-0.963432 0.04829,-2.108706 z m 2.898537,1.826471 c 0.564345,-0.195682 1.737813,-0.838746 1.737813,-0.95232 0,-0.0238 -0.680965,-0.725209 -1.513253,-1.558545 l -1.513254,-1.515188 v 2.13401 c 0,1.173707 0.01554,2.14959 0.03458,2.168645 0.04913,0.04924 0.778151,-0.111556 1.254123,-0.276602 z m 3.251884,-2.605609 C 19.632031,13.526124 19.286463,10.35529 17.206197,8.2293774 16.348042,7.3523756 15.318207,6.7869502 14.017509,6.4786331 l -0.499052,-0.1182985 -0.0021,1.2008759 c -8.82e-4,0.6604693 -5.07e-4,2.0138087 0.0015,3.0074065 l 0.0033,1.806553 2.074944,2.080767 c 1.141219,1.14442 2.094785,2.080759 2.119035,2.080759 0.02424,0 0.178978,-0.216841 0.343835,-0.481854 z M 9.8382599,14.393308 11.908614,12.314437 V 9.360783 c 0,-3.3906721 0.08869,-3.040423 -0.716272,-2.8287989 -0.717202,0.1885548 -0.75153,0.2008831 -1.2756122,0.457999 -1.8127676,0.8893532 -3.0914749,2.6026888 -3.4653494,4.6432269 -0.1640993,0.895618 -0.066189,2.117721 0.243439,3.038635 0.2457145,0.730827 0.8366915,1.800328 0.9948071,1.800328 0.04305,0 1.0099375,-0.935492 2.1486334,-2.078865 z"
       id="path248" /></g></svg>
