<?xml version="1.0" encoding="UTF-8" standalone="no"?>
<svg
   height="96"
   style="line-height:1"
   viewBox="0 0 96 96"
   width="96"
   version="1.1"
   id="svg1"
   sodipodi:docname="deepseek.svg"
   inkscape:version="1.4.2 (ebf0e940, 2025-05-08)"
   xmlns:inkscape="http://www.inkscape.org/namespaces/inkscape"
   xmlns:sodipodi="http://sodipodi.sourceforge.net/DTD/sodipodi-0.dtd"
   xmlns="http://www.w3.org/2000/svg"
   xmlns:svg="http://www.w3.org/2000/svg"
   xmlns:rdf="http://www.w3.org/1999/02/22-rdf-syntax-ns#"
   xmlns:cc="http://creativecommons.org/ns#"
   xmlns:dc="http://purl.org/dc/elements/1.1/">
  <defs
     id="defs1" />
  <sodipodi:namedview
     id="namedview1"
     pagecolor="#ffffff"
     bordercolor="#000000"
     borderopacity="0.25"
     inkscape:showpageshadow="2"
     inkscape:pageopacity="0.0"
     inkscape:pagecheckerboard="0"
     inkscape:deskcolor="#d1d1d1"
     inkscape:zoom="1.3020833"
     inkscape:cx="13.056"
     inkscape:cy="-23.808"
     inkscape:window-width="976"
     inkscape:window-height="655"
     inkscape:window-x="0"
     inkscape:window-y="23"
     inkscape:window-maximized="0"
     inkscape:current-layer="svg1" />
  <title
     id="title1">DeepSeek</title>
  <path
     d="m 82.459682,28.424298 c -0.71392,-0.348516 -1.023098,0.317622 -1.439089,0.657708 -0.143444,0.109679 -0.264122,0.252961 -0.385065,0.382266 -1.045593,1.115853 -2.265433,1.846641 -3.859104,1.759505 -2.330078,-0.129281 -4.320059,0.601494 -6.079562,2.38348 -0.373849,-2.197975 -1.616167,-3.507763 -3.504954,-4.350978 -0.989372,-0.438471 -1.989987,-0.87413 -2.684235,-1.826957 -0.483434,-0.677385 -0.615548,-1.433467 -0.85726,-2.17549 -0.154604,-0.449712 -0.309188,-0.907857 -0.823542,-0.983752 -0.562142,-0.08717 -0.781378,0.38227 -1.000609,0.775758 -0.879754,1.607726 -1.219845,3.378474 -1.186124,5.171701 0.07586,4.036183 1.779179,7.251634 5.166087,9.536738 0.385064,0.261371 0.483447,0.525602 0.362583,0.907867 -0.230504,0.786996 -0.505924,1.551506 -0.74765,2.341313 -0.154553,0.503118 -0.385065,0.609935 -0.924725,0.393509 a 15.53198,15.53198 0 0 1 -4.8794,-3.316656 c -2.408772,-2.327266 -4.584249,-4.896256 -7.299399,-6.908725 a 31.943715,31.943715 0 0 0 -1.936576,-1.323842 c -2.768549,-2.689855 0.365374,-4.899069 1.090557,-5.160463 0.758881,-0.275426 0.261427,-1.21423 -2.189548,-1.202979 -2.450947,0.01121 -4.693886,0.829156 -7.552377,1.922517 a 8.5867167,8.5867167 0 0 1 -1.306983,0.385068 26.974378,26.974378 0 0 0 -8.103273,-0.286712 c -5.298182,0.590251 -9.528302,3.097398 -12.639759,7.372493 -3.738246,5.13798 -4.617997,10.978632 -3.541486,17.066626 1.132706,6.41965 4.409994,11.734718 9.443973,15.888944 5.222298,4.308821 11.234403,6.419656 18.095346,6.014914 4.165477,-0.238895 8.805952,-0.798238 14.036683,-5.227914 1.321043,0.657702 2.703902,0.9191 5.003066,1.115849 1.770741,0.165894 3.474032,-0.08436 4.792262,-0.359742 2.065864,-0.438484 1.922517,-2.352578 1.177686,-2.701102 -6.057084,-2.82195 -4.727615,-1.672374 -5.939024,-2.602712 3.080532,-3.642686 7.718204,-7.425887 9.533916,-19.683401 0.140604,-0.97531 0.02097,-1.588046 0,-2.375053 -0.0097,-0.477816 0.09837,-0.66614 0.646464,-0.71954 a 11.729089,11.729089 0 0 0 4.342549,-1.335092 c 3.923748,-2.14457 5.508988,-5.663582 5.882822,-9.885262 0.05621,-0.646456 -0.01088,-1.312596 -0.69425,-1.652697 z m -34.1979,37.995175 c -5.871574,-4.615194 -8.718825,-6.135778 -9.893701,-6.071136 -1.101802,0.06743 -0.902236,1.323838 -0.660515,2.144568 0.252962,0.80948 0.581821,1.366008 1.042768,2.077115 0.320423,0.469381 0.539664,1.169257 -0.317625,1.694865 -1.891598,1.169252 -5.177323,-0.393502 -5.33191,-0.469396 -3.825379,-2.254193 -7.026777,-5.227912 -9.27815,-9.295012 -2.175493,-3.915328 -3.440313,-8.11452 -3.648304,-12.597606 -0.05622,-1.084933 0.261368,-1.467189 1.340711,-1.663936 a 13.199091,13.199091 0 0 1 4.297568,-0.109623 c 5.992441,0.876933 11.091065,3.555542 15.368959,7.796906 2.439703,2.417212 4.286336,5.303802 6.189187,8.125759 2.023712,2.996223 4.199197,5.851893 6.970559,8.190404 0.97813,0.820741 1.756697,1.444716 2.504344,1.902849 -2.254195,0.253017 -6.01492,0.309187 -8.583906,-1.72577 z m 2.810705,-18.100968 a 0.86007694,0.86007694 0 0 1 1.16645,-0.806679 0.84883414,0.84883413 0 0 1 0.56213,0.809488 0.86007694,0.86007694 0 0 1 -0.871314,0.862887 0.85164499,0.85164499 0 0 1 -0.854457,-0.865696 z m 8.741312,4.485892 c -0.562145,0.227667 -1.121472,0.42441 -1.658322,0.449707 A 3.4993328,3.4993328 0 0 1 55.912523,52.540182 C 55.142397,51.89372 54.591498,51.533946 54.361017,50.409667 a 4.8625276,4.8625276 0 0 1 0.0449,-1.652699 c 0.196737,-0.919099 -0.02351,-1.509351 -0.671747,-2.043381 -0.525598,-0.438468 -1.197362,-0.55932 -1.933772,-0.55932 a 1.5711865,1.5711865 0 0 1 -0.713911,-0.219232 c -0.309127,-0.151731 -0.562145,-0.534026 -0.320461,-1.006229 0.07857,-0.151745 0.449719,-0.522794 0.539652,-0.590247 1.000622,-0.567761 2.155815,-0.382274 3.221081,0.0449 0.98937,0.40474 1.73702,1.146769 2.813526,2.197973 1.098983,1.267628 1.298547,1.61897 1.925331,2.568982 0.494679,0.744844 0.944395,1.509358 1.250759,2.383493 0.188307,0.548083 -0.05341,0.994996 -0.702666,1.27044 z"
     fill="#4d6bfe"
     id="path1"
     style="stroke-width:2.81073" />
  <metadata
     id="metadata1">
    <rdf:RDF>
      <cc:Work
         rdf:about="">
        <dc:title>DeepSeek</dc:title>
      </cc:Work>
    </rdf:RDF>
  </metadata>
</svg>
