<?xml version="1.0" encoding="UTF-8" standalone="no"?>
<svg
   width="96"
   height="96"
   viewBox="0 0 96 96"
   version="1.1"
   id="svg10"
   sodipodi:docname="easyeda.svg"
   inkscape:version="1.2.2 (b0a8486541, 2022-12-01)"
   xmlns:inkscape="http://www.inkscape.org/namespaces/inkscape"
   xmlns:sodipodi="http://sodipodi.sourceforge.net/DTD/sodipodi-0.dtd"
   xmlns="http://www.w3.org/2000/svg"
   xmlns:svg="http://www.w3.org/2000/svg"
   xmlns:rdf="http://www.w3.org/1999/02/22-rdf-syntax-ns#"
   xmlns:cc="http://creativecommons.org/ns#"
   xmlns:dc="http://purl.org/dc/elements/1.1/">
  <defs
     id="defs14" />
  <sodipodi:namedview
     id="namedview12"
     pagecolor="#ffffff"
     bordercolor="#000000"
     borderopacity="0.25"
     inkscape:showpageshadow="2"
     inkscape:pageopacity="0.0"
     inkscape:pagecheckerboard="0"
     inkscape:deskcolor="#d1d1d1"
     showgrid="false"
     inkscape:zoom="1.5531095"
     inkscape:cx="160.9674"
     inkscape:cy="42.495394"
     inkscape:window-width="1366"
     inkscape:window-height="721"
     inkscape:window-x="0"
     inkscape:window-y="24"
     inkscape:window-maximized="1"
     inkscape:current-layer="svg10" />
  <!-- Generator: Sketch 52.2 (67145) - http://www.bohemiancoding.com/sketch -->
  <title
     id="title2">Group 33</title>
  <desc
     id="desc4">Created with Sketch.</desc>
  <path
     d="m 35.449937,57.920653 c 2.84865,0 5.174451,2.332122 5.174451,5.188738 0,2.87488 -2.307771,5.188921 -5.174451,5.188921 -2.866681,0 -5.174451,-2.314041 -5.174451,-5.188921 0,-2.856616 2.30777,-5.188738 5.174451,-5.188738 M 78.702579,40.09373 C 76.953726,38.339983 74.826251,37.002253 72.482422,36.224821 67.866881,24.508892 54.651302,18.741595 42.968217,23.369859 c -1.820978,0.723192 -3.533771,1.66353 -5.102334,2.820641 -1.766885,1.301567 -3.353478,2.856615 -4.687653,4.610363 -0.73921,-0.09039 -1.496448,-0.144821 -2.253685,-0.144821 -10.114522,0 -18.317918,8.226334 -18.317918,18.36932 0,7.918979 5.030216,14.789325 12.223963,17.320507 1.388269,4.574022 5.60716,7.882637 10.619347,7.882637 6.111984,0 11.08811,-4.989863 11.08811,-11.119115 0,-0.487975 -0.03606,-0.95823 -0.09013,-1.410228 l 15.631528,-7.88264 -0.126205,-0.253295 1.478414,-0.741095 -3.010918,-5.984614 -1.478417,0.741455 -0.126205,-0.253299 -15.613501,7.846837 c -2.001272,-1.970884 -4.741751,-3.182234 -7.752665,-3.182234 -4.471303,0 -8.311577,2.657742 -10.078465,6.472771 -4.092684,-2.422702 -6.274246,-7.358503 -5.012183,-12.203908 1.514474,-5.857875 7.500249,-9.365544 13.341789,-7.846657 1.063739,0.271197 2.091417,0.723193 3.028948,1.301749 2.66836,-8.081696 11.376581,-12.457205 19.417715,-9.781382 5.679278,1.898382 9.753929,6.924764 10.439053,12.89112 0.270439,-0.01825 0.55891,-0.03616 0.829354,-0.03616 4.723714,0 8.563986,3.851009 8.563986,8.587929 0,4.447466 -3.389536,8.153839 -7.824779,8.551776 H 61.86308 v 7.41274 h 6.616807 l 0.324533,-0.03634 c 8.762306,-0.741084 15.27094,-8.461184 14.531731,-17.266257 -0.324529,-3.74253 -1.965213,-7.268104 -4.63357,-9.943921"
     id="Fill-17"
     style="fill:#5e7baf;fill-rule:evenodd;stroke:none;stroke-width:1.00881;fill-opacity:1" />
  <metadata
     id="metadata302">
    <rdf:RDF>
      <cc:Work
         rdf:about="">
        <dc:title>Group 33</dc:title>
      </cc:Work>
    </rdf:RDF>
  </metadata>
</svg>
