<?xml version="1.0" encoding="UTF-8" standalone="no"?>
<svg
   width="96"
   height="94"
   version="1.1"
   id="svg2236"
   sodipodi:docname="github.svg"
   inkscape:version="1.2.1 (9c6d41e4, 2022-07-14)"
   xmlns:inkscape="http://www.inkscape.org/namespaces/inkscape"
   xmlns:sodipodi="http://sodipodi.sourceforge.net/DTD/sodipodi-0.dtd"
   xmlns="http://www.w3.org/2000/svg"
   xmlns:svg="http://www.w3.org/2000/svg">
  <defs
     id="defs2240" />
  <sodipodi:namedview
     id="namedview2238"
     pagecolor="#ffffff"
     bordercolor="#000000"
     borderopacity="0.25"
     inkscape:showpageshadow="2"
     inkscape:pageopacity="0.0"
     inkscape:pagecheckerboard="0"
     inkscape:deskcolor="#d1d1d1"
     showgrid="false"
     inkscape:zoom="2.4583333"
     inkscape:cx="9.9661017"
     inkscape:cy="48"
     inkscape:window-width="1440"
     inkscape:window-height="900"
     inkscape:window-x="0"
     inkscape:window-y="0"
     inkscape:window-maximized="0"
     inkscape:current-layer="svg2236" />
  <path
     fill-rule="evenodd"
     clip-rule="evenodd"
     d="M 48.026478,15 C 30.316663,15 16,29.666605 16,47.811196 c 0,14.503939 9.173179,26.781221 21.898811,31.126537 1.591032,0.326665 2.17382,-0.705997 2.17382,-1.57466 0,-0.760664 -0.05244,-3.367986 -0.05244,-6.084642 -8.908991,1.955992 -10.764212,-3.911317 -10.764212,-3.911317 -1.431732,-3.80265 -3.553107,-4.77998 -3.553107,-4.77998 -2.915908,-2.009991 0.2124,-2.009991 0.2124,-2.009991 3.234507,0.217332 4.931739,3.367986 4.931739,3.367986 2.862808,4.997312 7.475948,3.585318 9.331824,2.715988 0.264844,-2.118657 1.113788,-3.585318 2.015176,-4.399981 -7.10556,-0.760664 -14.581508,-3.585319 -14.581508,-16.188599 0,-3.585319 1.271777,-6.51864 3.286952,-8.799963 -0.317944,-0.814664 -1.431731,-4.183316 0.3186,-8.691964 0,0 2.704164,-0.86933 8.80148,3.367986 a 30.791413,31.313202 0 0 1 8.006947,-1.086662 c 2.704164,0 5.460773,0.380665 8.006292,1.086662 6.097972,-4.237316 8.802136,-3.367986 8.802136,-3.367986 1.750331,4.508648 0.635888,7.8773 0.317944,8.691964 2.068275,2.281323 3.287608,5.214644 3.287608,8.799963 0,12.60328 -7.475948,15.373269 -14.634608,16.188599 1.166888,1.031995 2.17382,2.987321 2.17382,6.083974 0,4.399982 -0.05244,7.9313 -0.05244,9.017296 0,0.86933 0.583444,1.901992 2.17382,1.575993 C 70.826677,74.591751 79.999857,62.315135 79.999857,47.811196 80.052301,29.666605 65.683194,15 48.026478,15 Z"
     fill="#24292f"
     id="path2234"
     style="fill:#cccccc;stroke-width:0.661086" />
</svg>
