<?xml version="1.0" encoding="UTF-8" standalone="no"?>
<svg
   viewBox="52 42 95 96"
   version="1.1"
   id="svg12"
   sodipodi:docname="gmail.svg"
   inkscape:version="1.2.1 (9c6d41e4, 2022-07-14)"
   width="95"
   height="96"
   xmlns:inkscape="http://www.inkscape.org/namespaces/inkscape"
   xmlns:sodipodi="http://sodipodi.sourceforge.net/DTD/sodipodi-0.dtd"
   xmlns="http://www.w3.org/2000/svg"
   xmlns:svg="http://www.w3.org/2000/svg">
  <defs
     id="defs16" />
  <sodipodi:namedview
     id="namedview14"
     pagecolor="#ffffff"
     bordercolor="#000000"
     borderopacity="0.25"
     inkscape:showpageshadow="2"
     inkscape:pageopacity="0.0"
     inkscape:pagecheckerboard="0"
     inkscape:deskcolor="#d1d1d1"
     showgrid="false"
     inkscape:zoom="1.2642212"
     inkscape:cx="76.727079"
     inkscape:cy="3.9550041"
     inkscape:window-width="1309"
     inkscape:window-height="456"
     inkscape:window-x="0"
     inkscape:window-y="25"
     inkscape:window-maximized="0"
     inkscape:current-layer="svg12" />
  <rect
     style="fill:none;stroke-width:24.6059;stroke-linecap:round"
     id="rect351"
     width="96"
     height="96"
     x="52"
     y="42"
     rx="10"
     ry="10"
     inkscape:export-filename="../png/gmail.png"
     inkscape:export-xdpi="96"
     inkscape:export-ydpi="96" />
  <g
     id="g410"
     transform="matrix(0.82838983,0,0,0.83902457,20.474576,27.080298)">
    <path
       fill="#4285f4"
       d="M 58,108 H 72 V 74 L 52,59 v 43 c 0,3.32 2.69,6 6,6"
       id="path2" />
    <path
       fill="#34a853"
       d="m 120,108 h 14 c 3.32,0 6,-2.69 6,-6 V 59 l -20,15"
       id="path4" />
    <path
       fill="#fbbc04"
       d="m 120,48 v 26 l 20,-15 v -8 c 0,-7.42 -8.47,-11.65 -14.4,-7.2"
       id="path6" />
    <path
       fill="#ea4335"
       d="M 72,74 V 48 L 96,66 120,48 V 74 L 96,92"
       id="path8" />
    <path
       fill="#c5221f"
       d="m 52,51 v 8 L 72,74 V 48 L 66.4,43.8 C 60.46,39.35 52,43.58 52,51"
       id="path10" />
  </g>
</svg>
