<?xml version="1.0" encoding="UTF-8" standalone="no"?>
<svg
   viewBox="0 0 48 48"
   width="96"
   height="96"
   version="1.1"
   id="svg2159"
   xmlns:xlink="http://www.w3.org/1999/xlink"
   xmlns="http://www.w3.org/2000/svg"
   xmlns:svg="http://www.w3.org/2000/svg">
  <defs
     id="defs2144">
    <path
       id="A"
       d="M 44.5,20 H 24 v 8.5 H 35.8 C 34.7,33.9 30.1,37 24,37 16.8,37 11,31.2 11,24 c 0,-7.2 5.8,-13 13,-13 3.1,0 5.9,1.1 8.1,2.9 L 38.5,7.5 C 34.6,4.1 29.6,2 24,2 11.8,2 2,11.8 2,24 c 0,12.2 9.8,22 22,22 11,0 21,-8 21,-22 0,-1.3 -0.2,-2.7 -0.5,-4 z" />
  </defs>
  <clipPath
     id="B">
    <use
       xlink:href="#A"
       id="use2146" />
  </clipPath>
  <rect
     style="fill:none;stroke-width:0.62203"
     id="rect358"
     width="48"
     height="48"
     x="0"
     y="0"
     rx="5"
     ry="5" />
  <path
     fill="#e34f26"
     d="M 12.068662,37.192374 9.4172532,7.444864 H 38.582747 l -2.651409,29.74751 -11.963672,3.362762"
     id="path1263"
     style="stroke-width:0.0646685" />
  <path
     fill="#ef652a"
     d="M 24.032334,37.968396 33.667941,35.316988 35.931338,9.8375985 H 24.032334"
     id="path1265"
     style="stroke-width:0.0646685" />
  <path
     fill="#ebebeb"
     d="m 24.032334,20.895912 h -4.850137 l -0.323343,-3.750773 h 5.17348 v -3.621436 h -0.06467 -9.118259 l 0.06467,0.970028 0.905359,10.088286 h 8.212899 z m 0,9.506269 h -0.06467 L 19.89355,29.302817 19.634876,26.392734 H 17.694821 16.01344 l 0.45268,5.755497 7.501546,2.069392 h 0.06467 z"
     id="path1267"
     style="stroke-width:0.0646685" />
  <path
     fill="#ffffff"
     d="m 23.967666,20.895912 v 3.686105 h 4.526795 l -0.45268,4.7208 -4.074115,1.099364 v 3.815442 l 7.501546,-2.069392 0.06467,-0.646685 0.840691,-9.635607 0.129337,-0.970027 h -1.034696 z m 0,-7.372209 v 2.263398 1.358038 0 h 8.859584 v 0 0 l 0.06467,-0.776022 0.194005,-1.875386 0.06467,-0.970028 z"
     id="path1269"
     style="stroke-width:0.0646685" />
</svg>
