<?xml version="1.0" encoding="UTF-8" standalone="no"?>
<!-- Created with Inkscape (http://www.inkscape.org/) -->

<svg
   width="96"
   height="96"
   viewBox="0 0 25.399999 25.4"
   version="1.1"
   id="svg5"
   xml:space="preserve"
   inkscape:version="1.2.2 (b0a8486, 2022-12-01)"
   sodipodi:docname="jsfiddle.svg"
   xmlns:inkscape="http://www.inkscape.org/namespaces/inkscape"
   xmlns:sodipodi="http://sodipodi.sourceforge.net/DTD/sodipodi-0.dtd"
   xmlns="http://www.w3.org/2000/svg"
   xmlns:svg="http://www.w3.org/2000/svg"><sodipodi:namedview
     id="namedview7"
     pagecolor="#ffffff"
     bordercolor="#666666"
     borderopacity="1.0"
     inkscape:showpageshadow="2"
     inkscape:pageopacity="0.0"
     inkscape:pagecheckerboard="0"
     inkscape:deskcolor="#d1d1d1"
     inkscape:document-units="mm"
     showgrid="false"
     inkscape:zoom="1.8992985"
     inkscape:cx="138.20892"
     inkscape:cy="65.550516"
     inkscape:window-width="1250"
     inkscape:window-height="655"
     inkscape:window-x="0"
     inkscape:window-y="25"
     inkscape:window-maximized="0"
     inkscape:current-layer="layer1" /><defs
     id="defs2" /><g
     inkscape:label="Layer 1"
     inkscape:groupmode="layer"
     id="layer1"><path
       style="fill:#97b7d2;stroke-width:0.069554;fill-opacity:1"
       d="m 5.9928465,19.424113 c -0.79487,-0.14083 -1.7113,-0.64969 -2.231003,-1.2388 -1.00694,-1.14141 -1.201334,-2.89492 -0.472517,-4.26233 0.224652,-0.42148 0.823835,-1.08483 1.158436,-1.28249 l 0.197994,-0.11696 -0.0046,-0.74025 c -0.0041,-0.66356 0.01477,-0.7816 0.182366,-1.13921 0.238887,-0.50972 0.782323,-1.0531504 1.292039,-1.2920508 0.349645,-0.16386 0.484904,-0.18697 1.0944887,-0.18697 0.646893,0 0.726723,0.0158 1.141362,0.22606 0.245203,0.12433 0.452348,0.2260504 0.460323,0.2260504 0.008,0 0.134787,-0.2056804 0.281804,-0.4570804 0.748081,-1.27915 2.3046518,-2.33802 3.8300938,-2.60542 0.710558,-0.12456 2.010911,-0.0548 2.628378,0.14094 1.717631,0.54458 2.996628,1.70689 3.652956,3.3196708 0.238699,0.58655 0.337111,1.03245 0.39549,1.79191 l 0.04501,0.58551 0.451891,0.26414 c 0.248538,0.14527 0.62208,0.45194 0.830092,0.68147 1.776969,1.96078 1.027102,4.9591 -1.484281,5.93485 l -0.478478,0.1859 -6.329419,0.0103 c -3.4811808,0.006 -6.4702665,-0.0147 -6.6424135,-0.0452 z m 5.1743915,-2.35101 c 0.466452,-0.21827 0.946361,-0.55637 0.946364,-0.66671 3e-6,-0.034 -0.178418,-0.26876 -0.396484,-0.52166 -0.218068,-0.25289 -0.40619,-0.47318 -0.418049,-0.48951 -0.01186,-0.0163 -0.107311,0.0503 -0.212114,0.14799 -0.588405,0.54874 -1.5097838,0.59345 -2.0059078,0.0973 -0.760605,-0.76061 -0.168102,-1.91779 0.9404698,-1.83679 0.763408,0.0558 0.965243,0.21723 2.592072,2.07327 0.577982,0.65942 1.067898,1.03502 1.648977,1.26422 0.316535,0.12485 0.533505,0.1542 1.154856,0.15624 0.984382,0.003 1.396249,-0.14566 1.976591,-0.71455 0.506946,-0.49695 0.701239,-0.97027 0.701239,-1.70831 0,-0.86963 -0.338349,-1.50662 -1.054181,-1.98463 -0.498298,-0.33276 -0.96217,-0.45015 -1.762757,-0.4461 -0.505061,0.003 -0.709983,0.0373 -1.060806,0.17991 -0.439109,0.1785 -1.054475,0.59076 -1.058442,0.7091 -0.0018,0.0527 0.213039,0.32326 0.771956,0.97247 0.03054,0.0355 0.161596,-0.0191 0.3008,-0.12528 0.810264,-0.61802 1.808819,-0.50288 2.183186,0.25174 0.12954,0.26111 0.152957,0.38752 0.114243,0.61667 -0.109824,0.65004 -0.824249,1.07645 -1.503406,0.89732 -0.648442,-0.17102 -0.944591,-0.42706 -2.240442,-1.93699 -0.650531,-0.75801 -1.14514,-1.13665 -1.844077,-1.41171 -0.547558,-0.21548 -1.4591608,-0.21322 -2.1150948,0.005 -0.568072,0.18921 -1.147578,0.68242 -1.429265,1.21642 -0.166872,0.31635 -0.186736,0.42842 -0.186068,1.0497 6.31e-4,0.58435 0.02627,0.74709 0.16038,1.018 0.493578,0.99705 1.4166,1.47721 2.7373498,1.42399 0.495781,-0.02 0.684446,-0.0623 1.05861,-0.23737 z"
       id="path1610" /></g></svg>
