<?xml version="1.0" encoding="UTF-8" standalone="no"?>
<svg
   viewBox="0 0 48 48"
   width="96"
   height="96"
   version="1.1"
   id="svg2159"
   sodipodi:docname="maps.svg"
   inkscape:version="1.1.2 (0a00cf5339, 2022-02-04)"
   xmlns:inkscape="http://www.inkscape.org/namespaces/inkscape"
   xmlns:sodipodi="http://sodipodi.sourceforge.net/DTD/sodipodi-0.dtd"
   xmlns:xlink="http://www.w3.org/1999/xlink"
   xmlns="http://www.w3.org/2000/svg"
   xmlns:svg="http://www.w3.org/2000/svg">
  <sodipodi:namedview
     id="namedview2161"
     pagecolor="#ffffff"
     bordercolor="#666666"
     borderopacity="1.0"
     inkscape:showpageshadow="2"
     inkscape:pageopacity="0.0"
     inkscape:pagecheckerboard="0"
     inkscape:deskcolor="#d1d1d1"
     showgrid="false"
     inkscape:zoom="1.4142136"
     inkscape:cx="239.7092"
     inkscape:cy="75.306872"
     inkscape:window-width="1440"
     inkscape:window-height="838"
     inkscape:window-x="0"
     inkscape:window-y="25"
     inkscape:window-maximized="1"
     inkscape:current-layer="svg2159"
     inkscape:pageshadow="2" />
  <defs
     id="defs2144">
    <path
       id="A"
       d="M 44.5,20 H 24 v 8.5 H 35.8 C 34.7,33.9 30.1,37 24,37 16.8,37 11,31.2 11,24 c 0,-7.2 5.8,-13 13,-13 3.1,0 5.9,1.1 8.1,2.9 L 38.5,7.5 C 34.6,4.1 29.6,2 24,2 11.8,2 2,11.8 2,24 c 0,12.2 9.8,22 22,22 11,0 21,-8 21,-22 0,-1.3 -0.2,-2.7 -0.5,-4 z" />
  </defs>
  <clipPath
     id="B">
    <use
       xlink:href="#A"
       id="use2146" />
  </clipPath>
  <rect
     style="fill:none;stroke-width:0.62203"
     id="rect358"
     width="48"
     height="48"
     x="0"
     y="0"
     rx="5"
     ry="5" />
  <g
     id="g1023"
     transform="matrix(0.46440409,0,0,0.46440409,31.198263,14.94412)">
    <path
       fill="#1a73e8"
       d="m -8.5,-12.5 c -2.2,-0.7 -4.6,-1.1 -7.05,-1.1 -7.05,0 -13.4,3.2 -17.65,8.25 l 10.9,9.15 z"
       id="path903"
       style="stroke-width:0.5" />
    <path
       fill="#ea4335"
       d="m -33.2,-5.35 c -3.35,4 -5.4,9.2 -5.4,14.8 0,4.35 0.85,7.85 2.3,11 l 14,-16.65 z"
       id="path905"
       style="stroke-width:0.5" />
    <path
       fill="#4285f4"
       d="m -15.5,0.65 c 4.9,0 8.85,3.95 8.85,8.85 0,2.15 -0.8,4.15 -2.1,5.7 0,0 6.95,-8.3 13.75,-16.35 -2.8,-5.4 -7.65,-9.5 -13.5,-11.35 L -22.3,3.8 c 1.65,-1.9 4.05,-3.15 6.8,-3.15"
       id="path907"
       style="stroke-width:0.5" />
    <path
       fill="#fbbc04"
       d="m -15.5,18.3 c -4.9,0 -8.85,-3.95 -8.85,-8.85 0,-2.15 0.75,-4.15 2.05,-5.65 l -14,16.65 c 2.4,5.3 6.4,9.6 10.5,14.95 L -8.75,15.15 c -1.65,1.95 -4.05,3.15 -6.75,3.15"
       id="path909"
       style="stroke-width:0.5" />
    <path
       fill="#34a853"
       d="M -9.05,41 C -1.35,28.95 7.6,23.5 7.6,9.5 7.6,5.65 6.65,2.05 5,-1.15 L -25.8,35.4 c 1.3,1.7 2.65,3.65 3.95,5.65 4.7,7.25 3.4,11.55 6.4,11.55 3,0 1.7,-4.35 6.4,-11.6"
       id="path911"
       style="stroke-width:0.5" />
  </g>
</svg>
