<?xml version="1.0" encoding="UTF-8" standalone="no"?>
<!-- Created with Inkscape (http://www.inkscape.org/) -->

<svg
   width="96"
   height="96"
   viewBox="0 0 25.4 25.4"
   version="1.1"
   id="svg135"
   xml:space="preserve"
   inkscape:version="1.2.2 (b0a8486541, 2022-12-01)"
   sodipodi:docname="mpb.svg"
   xmlns:inkscape="http://www.inkscape.org/namespaces/inkscape"
   xmlns:sodipodi="http://sodipodi.sourceforge.net/DTD/sodipodi-0.dtd"
   xmlns="http://www.w3.org/2000/svg"
   xmlns:svg="http://www.w3.org/2000/svg"><sodipodi:namedview
     id="namedview137"
     pagecolor="#ffffff"
     bordercolor="#000000"
     borderopacity="0.25"
     inkscape:showpageshadow="2"
     inkscape:pageopacity="0.0"
     inkscape:pagecheckerboard="0"
     inkscape:deskcolor="#d1d1d1"
     inkscape:document-units="mm"
     showgrid="false"
     inkscape:zoom="3.3638608"
     inkscape:cx="58.266382"
     inkscape:cy="87.548212"
     inkscape:window-width="1440"
     inkscape:window-height="850"
     inkscape:window-x="0"
     inkscape:window-y="24"
     inkscape:window-maximized="1"
     inkscape:current-layer="layer1" /><defs
     id="defs132" /><g
     inkscape:label="Layer 1"
     inkscape:groupmode="layer"
     id="layer1"><path
       style="fill:#d50000;fill-opacity:1;stroke-width:0.0192512"
       d="m 5.4880686,16.127236 c -0.2182195,-0.05721 -0.3651798,-0.142261 -0.5291552,-0.306238 -0.4601292,-0.460129 -0.4593619,-1.16184 0.00179,-1.623413 0.1641099,-0.164262 0.3455732,-0.266964 0.5441927,-0.307986 0.060925,-0.01259 0.110772,-0.02807 0.110772,-0.03443 0,-0.0064 -0.049848,-0.02184 -0.110772,-0.03442 -0.1986197,-0.04103 -0.3800833,-0.143727 -0.5441929,-0.307991 -0.461986,-0.462424 -0.461986,-1.162911 0,-1.625328 0.1641096,-0.164266 0.3455732,-0.266964 0.5441924,-0.30799 0.060925,-0.01259 0.1107722,-0.02808 0.1107722,-0.03442 0,-0.0064 -0.049847,-0.02183 -0.1107722,-0.03442 C 5.3062716,11.469552 5.1248084,11.366856 4.9606984,11.202592 4.4995608,10.741021 4.4987932,10.039308 4.9589184,9.5791787 5.4190493,9.1190504 6.1207608,9.1198163 6.5823329,9.5810566 6.7465972,9.7451657 6.8492977,9.92663 6.8903218,10.125248 c 0.012586,0.06092 0.028074,0.110776 0.034426,0.110776 0.00635,0 0.021843,-0.04986 0.034428,-0.110776 0.041024,-0.198618 0.1437224,-0.3800823 0.3079866,-0.5441914 0.4624241,-0.4619891 1.1629072,-0.4619891 1.6253312,0 0.1642644,0.1641091 0.2669651,0.3455734 0.3079892,0.5441914 0.012585,0.06092 0.028074,0.110776 0.034428,0.110776 0.00635,0 0.021841,-0.04986 0.034428,-0.110776 0.041021,-0.198618 0.1437193,-0.3800823 0.3079862,-0.5441914 0.462421,-0.4619891 1.162911,-0.4619891 1.625332,0 0.164265,0.1641091 0.266962,0.3455734 0.307986,0.5441914 0.01259,0.06092 0.02806,0.110776 0.03442,0.110776 0.0064,0 0.02184,-0.04986 0.03442,-0.110776 0.04103,-0.198618 0.143722,-0.3800823 0.307987,-0.5441914 0.462422,-0.4619891 1.16291,-0.4619891 1.625332,0 0.164265,0.1641091 0.26696,0.3455734 0.307989,0.5441914 0.01258,0.06092 0.02806,0.110776 0.03442,0.110776 0.0064,0 0.02185,-0.04986 0.03442,-0.110776 0.04104,-0.198618 0.143723,-0.3800823 0.307986,-0.5441914 0.462424,-0.4619891 1.162911,-0.4619891 1.625332,0 0.164266,0.1641091 0.266962,0.3455734 0.307985,0.5441914 0.01259,0.06092 0.02807,0.110776 0.03442,0.110776 0.0064,0 0.02185,-0.04986 0.03443,-0.110776 0.04103,-0.198618 0.14372,-0.3800823 0.307983,-0.5441914 0.461575,-0.4611407 1.163285,-0.4619052 1.623418,-0.00188 0.460127,0.4601294 0.459361,1.1618434 -0.0018,1.6234134 -0.164115,0.164265 -0.345575,0.266966 -0.544196,0.307992 -0.06093,0.01259 -0.110775,0.02807 -0.110775,0.03442 0,0.0064 0.04986,0.02185 0.110775,0.03443 0.401249,0.08288 0.772994,0.454624 0.855868,0.855867 0.01259,0.06093 0.02808,0.110776 0.03442,0.110776 0.0064,0 0.02184,-0.04986 0.03443,-0.110776 0.04103,-0.198618 0.14372,-0.380083 0.307989,-0.544191 0.46157,-0.461136 1.163284,-0.461903 1.623415,-0.0018 0.460127,0.460129 0.459361,1.16184 -0.0018,1.623415 -0.164112,0.164262 -0.345572,0.26696 -0.544195,0.307987 -0.06094,0.01259 -0.110771,0.02806 -0.110771,0.03442 0,0.0064 0.04985,0.02183 0.110771,0.03443 0.198621,0.04102 0.380083,0.143719 0.54419,0.307988 0.46114,0.461574 0.461906,1.163282 0.0018,1.623416 -0.460129,0.46013 -1.161845,0.459362 -1.623418,-0.0018 -0.16426,-0.164113 -0.266961,-0.345577 -0.307987,-0.544197 -0.01259,-0.06092 -0.02807,-0.110772 -0.03442,-0.110772 -0.0064,0 -0.02185,0.04986 -0.03442,0.110772 -0.04102,0.198619 -0.143725,0.380082 -0.307989,0.544194 -0.461573,0.461137 -1.163287,0.461905 -1.623412,0.0018 -0.460135,-0.460133 -0.459365,-1.161845 0.0018,-1.623417 0.164109,-0.164265 0.345573,-0.266965 0.544189,-0.307989 0.06093,-0.01258 0.110775,-0.02807 0.110775,-0.03442 0,-0.0064 -0.04986,-0.02183 -0.110773,-0.03443 -0.401248,-0.08288 -0.772989,-0.454619 -0.855867,-0.855871 -0.01258,-0.06092 -0.02807,-0.110771 -0.03442,-0.110771 -0.0064,0 -0.02183,0.04986 -0.03443,0.110771 -0.04103,0.198622 -0.143719,0.380085 -0.307985,0.544199 -0.462421,0.461982 -1.162907,0.461982 -1.625332,0 -0.16426,-0.164088 -0.266957,-0.345552 -0.307979,-0.544173 -0.01258,-0.06092 -0.02806,-0.110771 -0.03443,-0.110771 -0.0064,0 -0.02184,0.04986 -0.03442,0.110771 -0.08288,0.40125 -0.454619,0.772994 -0.855867,0.855869 -0.06093,0.01259 -0.110777,0.02809 -0.110777,0.03443 0,0.0064 0.04986,0.02183 0.110777,0.03442 0.198617,0.04102 0.380079,0.143723 0.544188,0.307991 0.46114,0.461572 0.461907,1.163285 0.0018,1.623412 -0.46013,0.460132 -1.161843,0.459365 -1.623416,-0.0018 -0.164246,-0.164146 -0.266946,-0.345609 -0.30797,-0.544229 -0.01259,-0.06092 -0.02806,-0.110773 -0.03442,-0.110773 -0.0064,0 -0.02183,0.04986 -0.03442,0.110773 -0.04101,0.19862 -0.14372,0.380083 -0.307985,0.544196 -0.461572,0.461136 -1.163283,0.461901 -1.6234125,0.0018 -0.4601291,-0.460139 -0.4593584,-1.161849 0.00185,-1.623425 0.1641043,-0.164264 0.3455708,-0.266963 0.5441895,-0.307986 0.06093,-0.01259 0.11077,-0.02809 0.11077,-0.03442 0,-0.0064 -0.04985,-0.02183 -0.11077,-0.03442 -0.4012723,-0.08286 -0.7730171,-0.454603 -0.8558938,-0.855852 -0.012586,-0.06092 -0.028074,-0.110771 -0.034428,-0.110771 -0.00635,0 -0.021841,0.04986 -0.034425,0.110771 -0.041024,0.19862 -0.1437272,0.380082 -0.3079891,0.544194 -0.4624215,0.461984 -1.1629071,0.461984 -1.6253285,0 C 7.1029801,13.344952 7.000282,13.16349 6.959258,12.96487 6.946673,12.90395 6.93118,12.854099 6.92483,12.854099 c -0.00635,0 -0.021843,0.04986 -0.034429,0.110771 -0.082877,0.40125 -0.4546241,0.772994 -0.8558699,0.85587 -0.060925,0.01259 -0.110771,0.02808 -0.110771,0.03442 0,0.0064 0.049846,0.02183 0.110771,0.03442 0.1986184,0.04102 0.3800822,0.143723 0.5441919,0.307989 0.4611393,0.461573 0.4619048,1.163286 0.00183,1.623416 -0.2950921,0.295092 -0.7009053,0.408862 -1.0923446,0.306233 z m 6.0914234,-1.381769 c 0.04117,-0.199329 0.143647,-0.37999 0.309762,-0.546105 0.166117,-0.166121 0.346783,-0.268593 0.546108,-0.309763 0.06093,-0.01259 0.110774,-0.02807 0.110774,-0.03443 0,-0.0064 -0.04986,-0.02184 -0.110774,-0.03442 -0.401248,-0.08288 -0.772994,-0.45462 -0.85587,-0.855869 -0.01258,-0.06093 -0.02807,-0.110774 -0.03442,-0.110774 -0.0064,0 -0.02184,0.04986 -0.03442,0.110774 -0.08288,0.401249 -0.454622,0.772992 -0.855866,0.855869 -0.06092,0.01259 -0.110775,0.02809 -0.110775,0.03442 0,0.0064 0.04985,0.02183 0.110775,0.03443 0.401244,0.08287 0.77299,0.45462 0.855866,0.855868 0.01259,0.06093 0.02808,0.11077 0.03442,0.11077 0.0064,0 0.02183,-0.04986 0.03442,-0.11077 z m 6.930479,0 c 0.08288,-0.401248 0.454626,-0.772996 0.855874,-0.855868 0.06093,-0.01259 0.110771,-0.02807 0.110771,-0.03443 0,-0.0064 -0.04985,-0.02184 -0.110771,-0.03442 -0.401248,-0.08288 -0.772999,-0.45462 -0.855874,-0.855869 -0.01259,-0.06093 -0.02806,-0.110774 -0.03442,-0.110774 -0.0064,0 -0.02183,0.04986 -0.03442,0.110774 -0.08288,0.401249 -0.454621,0.772992 -0.855868,0.855869 -0.06092,0.01259 -0.110773,0.02809 -0.110773,0.03442 0,0.0064 0.04986,0.02183 0.110773,0.03443 0.199328,0.04118 0.379989,0.143642 0.546104,0.309763 0.166122,0.166115 0.268594,0.346776 0.309764,0.546105 0.01259,0.06093 0.02808,0.11077 0.03442,0.11077 0.0064,0 0.02184,-0.04986 0.03442,-0.11077 z M 6.9591721,12.435305 c 0.041171,-0.199322 0.1436435,-0.379987 0.3097639,-0.546105 0.1661181,-0.166122 0.3467769,-0.268594 0.546106,-0.309762 0.060926,-0.01258 0.1107706,-0.02808 0.1107706,-0.03443 0,-0.0064 -0.049844,-0.02183 -0.1107706,-0.03442 -0.4012485,-0.08289 -0.7729932,-0.454634 -0.8558699,-0.855883 -0.012585,-0.06093 -0.028078,-0.110771 -0.034427,-0.110771 -0.00635,0 -0.021843,0.04984 -0.034428,0.110771 -0.082877,0.401249 -0.4546214,0.772992 -0.8558698,0.85587 -0.060923,0.01258 -0.1107731,0.02808 -0.1107731,0.03442 0,0.0064 0.049849,0.02185 0.1107731,0.03442 0.4012484,0.08288 0.7729931,0.45462 0.8558698,0.855867 0.012585,0.06094 0.028073,0.110775 0.034428,0.110775 0.00635,0 0.021843,-0.04986 0.034428,-0.110775 z m 2.3101618,0 c 0.082877,-0.401245 0.4546215,-0.772993 0.8558671,-0.855867 0.06092,-0.01258 0.110776,-0.02808 0.110776,-0.03443 0,-0.0064 -0.04985,-0.02183 -0.110776,-0.03442 -0.4012456,-0.08289 -0.7729903,-0.454631 -0.8558671,-0.855881 -0.012585,-0.06093 -0.028079,-0.11077 -0.034428,-0.11077 -0.00633,0 -0.021841,0.04985 -0.034428,0.11077 -0.082877,0.40125 -0.4546214,0.772994 -0.8558698,0.855871 -0.060923,0.01258 -0.1107734,0.02809 -0.1107734,0.03442 0,0.0064 0.049849,0.02185 0.1107734,0.03442 0.1993262,0.04117 0.3799878,0.143639 0.5461058,0.309761 0.1661153,0.166118 0.268593,0.346781 0.309764,0.546105 0.012585,0.06094 0.028074,0.110776 0.034428,0.110776 0.00635,0 0.021841,-0.04986 0.034428,-0.110776 z m 2.3101581,0 c 0.08288,-0.401245 0.454622,-0.772993 0.85587,-0.855867 0.06093,-0.01258 0.110774,-0.02808 0.110774,-0.03443 0,-0.0064 -0.04986,-0.02183 -0.110774,-0.03442 -0.401248,-0.08288 -0.772994,-0.454622 -0.85587,-0.85587 -0.01258,-0.06093 -0.02807,-0.11077 -0.03442,-0.11077 -0.0064,0 -0.02184,0.04985 -0.03442,0.11077 -0.08288,0.401248 -0.454622,0.772993 -0.855866,0.85587 -0.06092,0.01259 -0.110775,0.02809 -0.110775,0.03442 0,0.0064 0.04985,0.02185 0.110775,0.03443 0.199323,0.04117 0.379986,0.14364 0.546101,0.309762 0.166121,0.166118 0.268595,0.346783 0.309765,0.546105 0.01259,0.06093 0.02808,0.110776 0.03442,0.110776 0.0064,0 0.02183,-0.04986 0.03442,-0.110776 z m 2.310159,0 c 0.08288,-0.401245 0.454622,-0.772993 0.855868,-0.855867 0.06093,-0.01258 0.110773,-0.02808 0.110773,-0.03443 0,-0.0064 -0.04985,-0.02183 -0.110773,-0.03442 -0.401246,-0.08288 -0.772988,-0.454622 -0.855868,-0.85587 -0.01259,-0.06093 -0.02807,-0.11077 -0.03442,-0.11077 -0.0064,0 -0.02183,0.04985 -0.03442,0.11077 -0.08288,0.401248 -0.454622,0.772993 -0.855873,0.85587 -0.06093,0.01259 -0.110774,0.02809 -0.110774,0.03442 0,0.0064 0.04986,0.02185 0.110774,0.03443 0.401251,0.08288 0.772996,0.454622 0.855873,0.855867 0.01259,0.06093 0.02807,0.110776 0.03442,0.110776 0.0064,0 0.02185,-0.04986 0.03442,-0.110776 z m 2.310166,0 c 0.08287,-0.401245 0.454618,-0.772993 0.855862,-0.855867 0.06094,-0.01258 0.110775,-0.02808 0.110775,-0.03443 0,-0.0064 -0.04986,-0.02183 -0.110775,-0.03442 -0.401244,-0.08288 -0.772991,-0.454622 -0.855862,-0.85587 -0.01259,-0.06093 -0.02808,-0.11077 -0.03443,-0.11077 -0.0064,0 -0.02183,0.04985 -0.03442,0.11077 -0.08288,0.401248 -0.454619,0.772993 -0.85587,0.85587 -0.06093,0.01259 -0.110775,0.02809 -0.110775,0.03442 0,0.0064 0.04986,0.02185 0.110775,0.03443 0.401251,0.08288 0.772997,0.454622 0.85587,0.855867 0.01259,0.06093 0.02809,0.110776 0.03442,0.110776 0.0064,0 0.02185,-0.04986 0.03443,-0.110776 z"
       id="path460" /></g></svg>
