<?xml version="1.0" encoding="UTF-8" standalone="no"?>
<!-- Created with Inkscape (http://www.inkscape.org/) -->

<svg
   width="96"
   height="96"
   viewBox="0 0 25.4 25.4"
   version="1.1"
   id="svg135"
   xml:space="preserve"
   inkscape:version="1.2.2 (b0a8486541, 2022-12-01)"
   sodipodi:docname="mpb.svg"
   xmlns:inkscape="http://www.inkscape.org/namespaces/inkscape"
   xmlns:sodipodi="http://sodipodi.sourceforge.net/DTD/sodipodi-0.dtd"
   xmlns="http://www.w3.org/2000/svg"
   xmlns:svg="http://www.w3.org/2000/svg"><sodipodi:namedview
     id="namedview137"
     pagecolor="#ffffff"
     bordercolor="#000000"
     borderopacity="0.25"
     inkscape:showpageshadow="2"
     inkscape:pageopacity="0.0"
     inkscape:pagecheckerboard="0"
     inkscape:deskcolor="#d1d1d1"
     inkscape:document-units="mm"
     showgrid="false"
     inkscape:zoom="3.3638608"
     inkscape:cx="58.266382"
     inkscape:cy="87.548212"
     inkscape:window-width="1440"
     inkscape:window-height="850"
     inkscape:window-x="0"
     inkscape:window-y="24"
     inkscape:window-maximized="1"
     inkscape:current-layer="layer1" /><defs
     id="defs132" /><g
     inkscape:label="Layer 1"
     inkscape:groupmode="layer"
     id="layer1"><path
       style="fill:#d50000;fill-opacity:1;stroke-width:0.0216306"
       d="M 4.5966995,16.550818 C 4.351509,16.486532 4.1863851,16.390974 4.0021431,16.20673 3.485144,15.689731 3.4860061,14.901292 4.004155,14.38267 c 0.1843931,-0.184563 0.3882845,-0.299959 0.6114524,-0.346051 0.068455,-0.01415 0.124463,-0.03154 0.124463,-0.03868 0,-0.0072 -0.056009,-0.02454 -0.124463,-0.03867 -0.2231682,-0.0461 -0.4270598,-0.161491 -0.6114527,-0.346057 -0.5190853,-0.519577 -0.5190853,-1.306642 0,-1.826211 0.1843929,-0.184569 0.3882845,-0.29996 0.6114522,-0.346056 0.068455,-0.01415 0.1244631,-0.03155 0.1244631,-0.03867 0,-0.0072 -0.056008,-0.02453 -0.1244631,-0.03867 -0.2231737,-0.04614 -0.427065,-0.161529 -0.6114582,-0.346095 -0.5181322,-0.518619 -0.5189946,-1.3070612 -0.002,-1.82406 0.517001,-0.5169981 1.3054409,-0.5161375 1.8240612,0.00211 0.1845667,0.1843922 0.2999605,0.3882847 0.346055,0.6114512 0.014141,0.06845 0.031544,0.1244667 0.038681,0.1244667 0.00714,0 0.024543,-0.056019 0.038683,-0.1244667 0.046094,-0.2231665 0.1614859,-0.427059 0.3460524,-0.6114512 0.5195776,-0.5190889 1.3066373,-0.5190889 1.8262148,0 0.1845667,0.1843922 0.2999608,0.3882847 0.3460553,0.6114512 0.01414,0.06845 0.031544,0.1244667 0.038683,0.1244667 0.00714,0 0.02454,-0.056019 0.038683,-0.1244667 0.046091,-0.2231665 0.1614824,-0.427059 0.346052,-0.6114512 0.5195748,-0.5190889 1.3066416,-0.5190889 1.8262156,0 0.184568,0.1843922 0.299958,0.3882847 0.346052,0.6114512 0.01415,0.06845 0.03153,0.1244667 0.03867,0.1244667 0.0072,0 0.02454,-0.056019 0.03867,-0.1244667 0.0461,-0.2231665 0.161486,-0.427059 0.346053,-0.6114512 0.519575,-0.5190889 1.306641,-0.5190889 1.826216,0 0.184567,0.1843922 0.299955,0.3882847 0.346055,0.6114512 0.01413,0.06845 0.03153,0.1244667 0.03867,0.1244667 0.0072,0 0.02455,-0.056019 0.03867,-0.1244667 0.04611,-0.2231665 0.161487,-0.427059 0.346052,-0.6114512 0.519578,-0.5190889 1.306642,-0.5190889 1.826216,0 0.184568,0.1843922 0.299957,0.3882847 0.346051,0.6114512 0.01415,0.06845 0.03154,0.1244667 0.03867,0.1244667 0.0072,0 0.02455,-0.056019 0.03869,-0.1244667 0.0461,-0.2231665 0.161483,-0.427059 0.346049,-0.6114512 0.518623,-0.5181356 1.307061,-0.5189946 1.824065,-0.00211 0.516996,0.5169988 0.516136,1.305442 -0.002,1.82406 -0.184399,0.184567 -0.388287,0.299962 -0.611457,0.346058 -0.06846,0.01415 -0.124466,0.03154 -0.124466,0.03867 0,0.0072 0.05602,0.02455 0.124466,0.03868 0.450842,0.09312 0.868533,0.510813 0.96165,0.961648 0.01415,0.06846 0.03155,0.124468 0.03867,0.124468 0.0072,0 0.02454,-0.05602 0.03868,-0.124468 0.0461,-0.223166 0.161484,-0.427059 0.346055,-0.61145 0.518619,-0.518131 1.307061,-0.518993 1.824062,-0.002 0.516997,0.516998 0.516136,1.305438 -0.002,1.824061 -0.184395,0.184564 -0.388283,0.299955 -0.611455,0.346053 -0.06847,0.01414 -0.124462,0.03153 -0.124462,0.03867 0,0.0072 0.05601,0.02453 0.124462,0.03868 0.22317,0.04609 0.42706,0.161482 0.61145,0.346053 0.518134,0.518623 0.518995,1.307059 0.002,1.824063 -0.516999,0.517 -1.305444,0.516137 -1.824065,-0.002 -0.184562,-0.184396 -0.299957,-0.388288 -0.346053,-0.611457 -0.01415,-0.06845 -0.03154,-0.124463 -0.03867,-0.124463 -0.0072,0 -0.02455,0.05602 -0.03867,0.124463 -0.04609,0.223167 -0.161488,0.427059 -0.346055,0.611454 -0.518621,0.518132 -1.307064,0.518994 -1.824058,0.002 -0.517006,-0.517003 -0.51614,-1.305444 0.002,-1.824064 0.184392,-0.184567 0.388284,-0.299961 0.611448,-0.346055 0.06846,-0.01414 0.124467,-0.03154 0.124467,-0.03867 0,-0.0072 -0.05602,-0.02453 -0.124465,-0.03868 -0.45084,-0.09312 -0.868526,-0.510807 -0.961648,-0.961652 -0.01414,-0.06845 -0.03154,-0.124462 -0.03868,-0.124462 -0.0072,0 -0.02453,0.05602 -0.03868,0.124462 -0.0461,0.223171 -0.161483,0.427062 -0.346051,0.611459 -0.519574,0.519081 -1.306637,0.519081 -1.826216,0 -0.184562,-0.184368 -0.299951,-0.388261 -0.346044,-0.61143 -0.01413,-0.06845 -0.03153,-0.124462 -0.03868,-0.124462 -0.0072,0 -0.02454,0.05602 -0.03867,0.124462 -0.09312,0.450843 -0.510808,0.868533 -0.961649,0.96165 -0.06846,0.01415 -0.124468,0.03156 -0.124468,0.03869 0,0.0072 0.05602,0.02453 0.124468,0.03867 0.223166,0.04609 0.427056,0.161486 0.611448,0.346057 0.518135,0.518621 0.518996,1.307062 0.002,1.824059 -0.517,0.517002 -1.305442,0.51614 -1.824063,-0.002 -0.184546,-0.184434 -0.29994,-0.388325 -0.346034,-0.611493 -0.01415,-0.06845 -0.03153,-0.124465 -0.03867,-0.124465 -0.0072,0 -0.02453,0.05602 -0.03867,0.124465 -0.04608,0.223168 -0.161484,0.427059 -0.346051,0.611456 -0.51862,0.51813 -1.3070591,0.518989 -1.8240592,0.002 -0.516999,-0.517011 -0.516133,-1.305449 0.00208,-1.824073 0.1843869,-0.184567 0.3882818,-0.299959 0.6114485,-0.346052 0.068455,-0.01415 0.1244615,-0.03156 0.1244615,-0.03867 0,-0.0072 -0.056007,-0.02453 -0.1244615,-0.03867 -0.4508673,-0.0931 -0.8685581,-0.51079 -0.961678,-0.961632 -0.014141,-0.06845 -0.031544,-0.124462 -0.038683,-0.124462 -0.00714,0 -0.02454,0.05602 -0.03868,0.124462 -0.046094,0.223168 -0.1614912,0.427058 -0.3460551,0.611454 -0.5195747,0.519083 -1.3066372,0.519083 -1.8262118,0 -0.1845646,-0.184391 -0.2999557,-0.388281 -0.3460501,-0.61145 -0.01414,-0.06845 -0.031548,-0.124461 -0.038683,-0.124461 -0.00714,0 -0.024543,0.05602 -0.038684,0.124461 -0.09312,0.450843 -0.5108136,0.868533 -0.9616516,0.961652 -0.068455,0.01415 -0.1244618,0.03155 -0.1244618,0.03867 0,0.0072 0.056007,0.02453 0.1244618,0.03867 0.2231668,0.04609 0.4270587,0.161486 0.6114516,0.346055 0.5181341,0.518621 0.5189942,1.307062 0.00206,1.824062 -0.3315642,0.331564 -0.787534,0.459396 -1.2273535,0.344083 z m 6.8442955,-1.55255 c 0.04626,-0.223965 0.161401,-0.426955 0.348048,-0.613601 0.186648,-0.186653 0.389644,-0.30179 0.613604,-0.348048 0.06846,-0.01415 0.124465,-0.03154 0.124465,-0.03868 0,-0.0072 -0.05602,-0.02454 -0.124465,-0.03867 -0.45084,-0.09312 -0.868532,-0.510809 -0.961652,-0.96165 -0.01414,-0.06846 -0.03154,-0.124465 -0.03867,-0.124465 -0.0072,0 -0.02454,0.05602 -0.03867,0.124465 -0.09312,0.450841 -0.510811,0.86853 -0.961647,0.96165 -0.06845,0.01415 -0.124467,0.03156 -0.124467,0.03867 0,0.0072 0.05601,0.02453 0.124467,0.03868 0.450836,0.09311 0.868528,0.510809 0.961647,0.961649 0.01415,0.06846 0.03155,0.124461 0.03867,0.124461 0.0072,0 0.02453,-0.05602 0.03867,-0.124461 z m 7.787055,0 c 0.09312,-0.45084 0.510816,-0.868535 0.961657,-0.961649 0.06846,-0.01415 0.124462,-0.03154 0.124462,-0.03868 0,-0.0072 -0.05601,-0.02454 -0.124462,-0.03867 -0.450841,-0.09312 -0.868538,-0.510809 -0.961657,-0.96165 -0.01414,-0.06846 -0.03153,-0.124465 -0.03867,-0.124465 -0.0072,0 -0.02453,0.05602 -0.03868,0.124465 -0.09312,0.450841 -0.51081,0.86853 -0.96165,0.96165 -0.06845,0.01415 -0.124464,0.03156 -0.124464,0.03867 0,0.0072 0.05602,0.02453 0.124464,0.03868 0.223965,0.04627 0.426954,0.161395 0.613601,0.348048 0.186653,0.186646 0.301791,0.389636 0.348049,0.613601 0.01415,0.06846 0.03155,0.124461 0.03868,0.124461 0.0072,0 0.02454,-0.05602 0.03867,-0.124461 z M 6.2496248,12.402581 c 0.046259,-0.223958 0.1613972,-0.426952 0.3480493,-0.613602 0.1866495,-0.186653 0.389637,-0.30179 0.6136022,-0.348047 0.068456,-0.01414 0.1244614,-0.03155 0.1244614,-0.03868 0,-0.0072 -0.056005,-0.02453 -0.1244614,-0.03867 -0.450841,-0.09314 -0.8685317,-0.510825 -0.9616515,-0.961667 -0.014141,-0.06846 -0.031548,-0.124461 -0.038682,-0.124461 -0.00714,0 -0.024543,0.056 -0.038683,0.124461 -0.09312,0.450842 -0.5108105,0.868531 -0.9616514,0.961652 -0.068453,0.01414 -0.1244642,0.03155 -0.1244642,0.03867 0,0.0072 0.05601,0.02455 0.1244642,0.03867 0.4508409,0.09312 0.8685315,0.510809 0.9616514,0.961648 0.014141,0.06847 0.031543,0.124466 0.038683,0.124466 0.00714,0 0.024543,-0.05602 0.038683,-0.124466 z m 2.5956874,0 c 0.09312,-0.450837 0.5108106,-0.868532 0.9616485,-0.961649 0.068455,-0.01414 0.1244673,-0.03155 0.1244673,-0.03868 0,-0.0072 -0.056012,-0.02453 -0.1244673,-0.03867 -0.4508379,-0.09313 -0.8685285,-0.510822 -0.9616485,-0.961664 -0.01414,-0.06846 -0.031549,-0.124461 -0.038683,-0.124461 -0.00711,0 -0.02454,0.05601 -0.038683,0.124461 -0.09312,0.450842 -0.5108105,0.868532 -0.9616514,0.961652 -0.068453,0.01414 -0.1244645,0.03156 -0.1244645,0.03867 0,0.0072 0.05601,0.02455 0.1244645,0.03867 0.223962,0.04626 0.4269525,0.161392 0.613602,0.348046 0.1866464,0.186649 0.3017899,0.389642 0.3480494,0.613601 0.01414,0.06847 0.031544,0.124468 0.038683,0.124468 0.00714,0 0.02454,-0.05602 0.038683,-0.124468 z m 2.5956828,0 c 0.09312,-0.450837 0.510812,-0.868532 0.961652,-0.961649 0.06846,-0.01414 0.124465,-0.03155 0.124465,-0.03868 0,-0.0072 -0.05602,-0.02453 -0.124465,-0.03867 -0.45084,-0.09312 -0.868532,-0.510811 -0.961652,-0.961652 -0.01414,-0.06846 -0.03154,-0.124461 -0.03867,-0.124461 -0.0072,0 -0.02454,0.05601 -0.03867,0.124461 -0.09312,0.450841 -0.510811,0.868531 -0.961647,0.961652 -0.06845,0.01415 -0.124467,0.03156 -0.124467,0.03867 0,0.0072 0.05601,0.02455 0.124467,0.03868 0.223958,0.04626 0.42695,0.161394 0.613596,0.348047 0.186653,0.18665 0.301792,0.389644 0.348051,0.613602 0.01415,0.06846 0.03155,0.124467 0.03867,0.124467 0.0072,0 0.02453,-0.05602 0.03867,-0.124467 z m 2.595685,0 c 0.09312,-0.450837 0.510811,-0.868532 0.961649,-0.961649 0.06846,-0.01414 0.124464,-0.03155 0.124464,-0.03868 0,-0.0072 -0.05601,-0.02453 -0.124464,-0.03867 -0.450838,-0.09312 -0.868526,-0.510811 -0.961649,-0.961652 -0.01415,-0.06846 -0.03154,-0.124461 -0.03867,-0.124461 -0.0072,0 -0.02453,0.05601 -0.03867,0.124461 -0.09312,0.450841 -0.510811,0.868531 -0.961655,0.961652 -0.06846,0.01415 -0.124465,0.03156 -0.124465,0.03867 0,0.0072 0.05602,0.02455 0.124465,0.03868 0.450844,0.09312 0.868535,0.510812 0.961655,0.961649 0.01415,0.06846 0.03154,0.124467 0.03867,0.124467 0.0072,0 0.02455,-0.05602 0.03867,-0.124467 z m 2.595692,0 c 0.09311,-0.450837 0.510807,-0.868532 0.961642,-0.961649 0.06847,-0.01414 0.124467,-0.03155 0.124467,-0.03868 0,-0.0072 -0.05602,-0.02453 -0.124467,-0.03867 -0.450835,-0.09312 -0.868529,-0.510811 -0.961642,-0.961652 -0.01415,-0.06846 -0.03155,-0.124461 -0.03869,-0.124461 -0.0072,0 -0.02453,0.05601 -0.03868,0.124461 -0.09312,0.450841 -0.510808,0.868531 -0.961652,0.961652 -0.06846,0.01415 -0.124466,0.03156 -0.124466,0.03867 0,0.0072 0.05602,0.02455 0.124466,0.03868 0.450844,0.09312 0.868536,0.510812 0.961652,0.961649 0.01415,0.06846 0.03156,0.124467 0.03868,0.124467 0.0072,0 0.02455,-0.05602 0.03869,-0.124467 z"
       id="path460" /></g></svg>
