<?xml version="1.0" encoding="UTF-8" standalone="no"?>
<!-- Created with Inkscape (http://www.inkscape.org/) -->

<svg
   width="96"
   height="96"
   viewBox="0 0 25.4 25.4"
   version="1.1"
   id="svg135"
   xml:space="preserve"
   xmlns="http://www.w3.org/2000/svg"
   xmlns:svg="http://www.w3.org/2000/svg"><defs
     id="defs132" /><g
     id="layer1"><path
       style="fill:#ff0000;fill-opacity:1;stroke-width:0.0273079"
       d="m 2.4698312,17.561507 c -0.3095448,-0.08116 -0.5180083,-0.201798 -0.7506077,-0.4344 -0.6526943,-0.652694 -0.6516058,-1.648072 0.00254,-2.302815 0.2327901,-0.233005 0.4901963,-0.378688 0.7719383,-0.436878 0.086422,-0.01786 0.1571305,-0.03982 0.1571305,-0.04883 0,-0.0091 -0.070709,-0.03098 -0.1571305,-0.04882 -0.2817425,-0.0582 -0.5391487,-0.203876 -0.7719388,-0.436885 -0.6553279,-0.655949 -0.6553279,-1.649592 0,-2.305532 0.2327901,-0.233011 0.4901963,-0.378689 0.7719383,-0.436883 0.086422,-0.01786 0.1571305,-0.03983 0.1571305,-0.04882 0,-0.0091 -0.070709,-0.03097 -0.1571305,-0.04882 C 2.2119518,10.954578 1.9545457,10.808898 1.7217555,10.57589 1.0676308,9.9211506 1.066542,8.9257683 1.7192235,8.2730744 2.3719201,7.6203814 3.3672993,7.621468 4.0220402,8.2757344 4.2550497,8.5085235 4.4007305,8.765931 4.4589233,9.0476713 c 0.017853,0.086416 0.039823,0.1571351 0.048834,0.1571351 0.00901,0 0.030984,-0.070723 0.048836,-0.1571351 0.058192,-0.2817403 0.2038705,-0.5391478 0.4368796,-0.7719369 0.6559495,-0.6553325 1.6495863,-0.6553325 2.3055357,0 0.2330093,0.2327891 0.3786905,0.4901966 0.4368833,0.7719369 0.017852,0.086416 0.039824,0.1571351 0.048836,0.1571351 0.00901,0 0.030981,-0.070723 0.048836,-0.1571351 0.058189,-0.2817403 0.2038662,-0.5391478 0.4368792,-0.7719369 0.6559459,-0.6553325 1.6495901,-0.6553325 2.3055369,0 0.23301,0.2327891 0.378686,0.4901966 0.436878,0.7719369 0.01786,0.086416 0.03981,0.1571351 0.04882,0.1571351 0.0091,0 0.03098,-0.070723 0.04882,-0.1571351 0.0582,-0.2817403 0.20387,-0.5391478 0.436881,-0.7719369 0.655946,-0.6553325 1.64959,-0.6553325 2.305537,0 0.233009,0.2327891 0.378683,0.4901966 0.436882,0.7719369 0.01784,0.086416 0.03981,0.1571351 0.04882,0.1571351 0.0091,0 0.03099,-0.070723 0.04882,-0.1571351 0.05821,-0.2817403 0.203873,-0.5391478 0.43688,-0.7719369 0.65595,-0.6553325 1.649592,-0.6553325 2.305538,0 0.233011,0.2327891 0.378684,0.4901966 0.436878,0.7719369 0.01786,0.086416 0.03982,0.1571351 0.04882,0.1571351 0.0091,0 0.03099,-0.070723 0.04884,-0.1571351 0.0582,-0.2817403 0.203867,-0.5391478 0.436876,-0.7719369 0.654744,-0.654129 1.650121,-0.6552135 2.302821,-0.00266 0.652689,0.6526939 0.651605,1.6480771 -0.0025,2.3028156 -0.232798,0.233009 -0.490198,0.378692 -0.771943,0.436887 -0.08643,0.01786 -0.157135,0.03982 -0.157135,0.04882 0,0.0091 0.07072,0.03099 0.157135,0.04883 0.569172,0.117556 1.096494,0.644884 1.21405,1.21405 0.01786,0.08643 0.03983,0.157135 0.04882,0.157135 0.0091,0 0.03098,-0.07072 0.04883,-0.157135 0.0582,-0.281741 0.20387,-0.539149 0.436884,-0.771937 0.654739,-0.654123 1.650121,-0.655211 2.302817,-0.0025 0.652693,0.652694 0.651605,1.648072 -0.0025,2.302817 -0.232792,0.233006 -0.490194,0.378683 -0.771941,0.43688 -0.08644,0.01785 -0.157129,0.03981 -0.157129,0.04882 0,0.0091 0.07071,0.03097 0.157129,0.04883 0.281745,0.05819 0.539149,0.203866 0.771936,0.43688 0.654127,0.654744 0.655213,1.65012 0.0025,2.30282 -0.652695,0.652695 -1.64808,0.651605 -2.302823,-0.0025 -0.233003,-0.232794 -0.378685,-0.490201 -0.436879,-0.771944 -0.01786,-0.08642 -0.03982,-0.15713 -0.04882,-0.15713 -0.0091,0 -0.03099,0.07072 -0.04882,0.15713 -0.05819,0.28174 -0.203874,0.539147 -0.436883,0.77194 -0.654742,0.654124 -1.650125,0.655213 -2.302813,0.0025 -0.652701,-0.6527 -0.651609,-1.648079 0.0025,-2.302821 0.232789,-0.233009 0.490196,-0.37869 0.771933,-0.436882 0.08643,-0.01785 0.157135,-0.03982 0.157135,-0.04882 0,-0.0091 -0.07072,-0.03097 -0.157132,-0.04883 -0.569171,-0.117558 -1.096486,-0.644877 -1.214049,-1.214053 -0.01785,-0.08642 -0.03982,-0.15713 -0.04883,-0.15713 -0.0091,0 -0.03097,0.07072 -0.04883,0.15713 -0.0582,0.281745 -0.203867,0.539151 -0.436878,0.771945 -0.655946,0.655323 -1.649588,0.655323 -2.305538,0 -0.233003,-0.232758 -0.378679,-0.490166 -0.43687,-0.771909 -0.01784,-0.08642 -0.03981,-0.15713 -0.04883,-0.15713 -0.0091,0 -0.03098,0.07072 -0.04882,0.15713 -0.117563,0.569175 -0.644878,1.096494 -1.21405,1.214051 -0.08643,0.01786 -0.157137,0.03984 -0.157137,0.04884 0,0.0091 0.07072,0.03097 0.157137,0.04882 0.281739,0.05819 0.539144,0.203871 0.771933,0.436885 0.654128,0.654742 0.655215,1.650122 0.0025,2.302815 -0.652696,0.652697 -1.648078,0.651609 -2.302819,-0.0025 -0.232983,-0.232842 -0.378664,-0.490249 -0.436856,-0.77199 -0.01786,-0.08642 -0.03981,-0.157133 -0.04882,-0.157133 -0.0091,0 -0.03097,0.07072 -0.04882,0.157133 -0.05818,0.281741 -0.203868,0.539148 -0.436878,0.771942 -0.6547406,0.654123 -1.6501183,0.655207 -2.3028137,0.0025 -0.6526942,-0.652708 -0.6516009,-1.648085 0.00263,-2.302831 0.2327823,-0.23301 0.4901928,-0.378689 0.7719335,-0.436879 0.086422,-0.01786 0.1571284,-0.03984 0.1571284,-0.04882 0,-0.0091 -0.070707,-0.03097 -0.1571284,-0.04882 -0.5691523,-0.117585 -1.096473,-0.644906 -1.2140339,-1.214079 -0.017853,-0.08641 -0.039823,-0.157129 -0.048836,-0.157129 -0.00901,0 -0.030981,0.07072 -0.048832,0.157129 -0.058192,0.281743 -0.2038774,0.539147 -0.4368832,0.771941 -0.6559458,0.655325 -1.6495861,0.655325 -2.3055318,0 C 4.7606132,13.6148 4.6149358,13.357396 4.5567431,13.075653 c -0.017852,-0.08642 -0.039828,-0.157128 -0.048836,-0.157128 -0.00901,0 -0.030984,0.07072 -0.048837,0.157128 -0.1175609,0.569174 -0.6448851,1.096493 -1.2140532,1.214054 -0.086422,0.01786 -0.1571289,0.03983 -0.1571289,0.04882 0,0.0091 0.070707,0.03097 0.1571289,0.04882 0.2817406,0.05819 0.5391475,0.20387 0.7719374,0.436883 0.6541271,0.654742 0.655213,1.650122 0.00259,2.302817 -0.4185889,0.418589 -0.9942356,0.579973 -1.5494932,0.434394 z m 8.6406968,-1.960043 c 0.0584,-0.282748 0.203763,-0.539017 0.439399,-0.774652 0.235637,-0.235642 0.491912,-0.380999 0.774654,-0.439398 0.08643,-0.01786 0.157134,-0.03982 0.157134,-0.04883 0,-0.0091 -0.07072,-0.03098 -0.157134,-0.04882 -0.569171,-0.11756 -1.096492,-0.64488 -1.214053,-1.214052 -0.01785,-0.08643 -0.03982,-0.157132 -0.04882,-0.157132 -0.0091,0 -0.03098,0.07072 -0.04882,0.157132 -0.117561,0.569172 -0.644882,1.096492 -1.2140483,1.214052 -0.086421,0.01786 -0.1571357,0.03984 -0.1571357,0.04882 0,0.0091 0.070715,0.03097 0.1571357,0.04883 0.5691663,0.117553 1.0964873,0.644879 1.2140483,1.21405 0.01786,0.08643 0.03983,0.157128 0.04882,0.157128 0.0091,0 0.03097,-0.07072 0.04882,-0.157128 z m 9.830898,0 c 0.117561,-0.569171 0.644889,-1.096497 1.214061,-1.21405 0.08643,-0.01786 0.157129,-0.03982 0.157129,-0.04883 0,-0.0091 -0.07071,-0.03098 -0.157129,-0.04882 -0.569172,-0.11756 -1.0965,-0.64488 -1.214061,-1.214052 -0.01785,-0.08643 -0.03981,-0.157132 -0.04882,-0.157132 -0.0091,0 -0.03097,0.07072 -0.04883,0.157132 -0.117556,0.569172 -0.644879,1.096492 -1.21405,1.214052 -0.08642,0.01786 -0.157132,0.03984 -0.157132,0.04882 0,0.0091 0.07072,0.03097 0.157132,0.04883 0.282748,0.05841 0.539015,0.203756 0.77465,0.439398 0.235643,0.235635 0.381001,0.491904 0.4394,0.774652 0.01786,0.08643 0.03983,0.157128 0.04883,0.157128 0.0091,0 0.03098,-0.07072 0.04882,-0.157128 z M 4.5565946,12.324495 c 0.0584,-0.28274 0.2037587,-0.539013 0.4394008,-0.774652 0.2356388,-0.235644 0.4919037,-0.381 0.7746524,-0.439398 0.086424,-0.01786 0.1571284,-0.03983 0.1571284,-0.04883 0,-0.0091 -0.070704,-0.03097 -0.1571284,-0.04882 C 5.201476,10.895214 4.6741553,10.367895 4.5565946,9.798721 4.5387421,9.7122965 4.5167664,9.6415934 4.5077594,9.6415934 c -0.00901,0 -0.030984,0.070705 -0.048836,0.1571276 -0.1175608,0.569174 -0.6448814,1.096493 -1.2140531,1.214054 -0.08642,0.01785 -0.1571319,0.03983 -0.1571319,0.04882 0,0.0091 0.07071,0.03099 0.1571319,0.04882 0.5691717,0.117556 1.0964923,0.64488 1.2140531,1.214048 0.017853,0.08644 0.039823,0.157135 0.048836,0.157135 0.00901,0 0.030984,-0.07072 0.048836,-0.157135 z m 3.2769694,0 c 0.117561,-0.569167 0.6448814,-1.096493 1.2140494,-1.21405 0.086422,-0.01786 0.1571358,-0.03983 0.1571358,-0.04883 0,-0.0091 -0.070713,-0.03097 -0.1571358,-0.04882 C 8.4784454,10.895218 7.951125,10.367899 7.833564,9.7987252 7.8157123,9.7123005 7.7937347,9.6415975 7.7847285,9.6415975 c -0.00898,0 -0.030981,0.070705 -0.048836,0.1571277 -0.1175607,0.5691738 -0.6448814,1.0964928 -1.2140531,1.2140538 -0.08642,0.01785 -0.1571323,0.03984 -0.1571323,0.04882 0,0.0091 0.07071,0.03099 0.1571323,0.04882 0.2827447,0.0584 0.5390134,0.203753 0.7746522,0.439397 0.2356349,0.235638 0.3809998,0.49191 0.4394009,0.774651 0.017852,0.08644 0.039823,0.157136 0.048836,0.157136 0.00901,0 0.030981,-0.07072 0.048836,-0.157136 z m 3.276964,0 c 0.117561,-0.569167 0.644882,-1.096493 1.214053,-1.21405 0.08643,-0.01786 0.157134,-0.03983 0.157134,-0.04883 0,-0.0091 -0.07072,-0.03097 -0.157134,-0.04882 -0.569171,-0.117562 -1.096492,-0.644882 -1.214053,-1.2140546 -0.01785,-0.086426 -0.03982,-0.1571276 -0.04882,-0.1571276 -0.0091,0 -0.03098,0.070705 -0.04882,0.1571276 -0.117561,0.5691726 -0.644882,1.0964926 -1.2140483,1.2140546 -0.086421,0.01786 -0.1571357,0.03984 -0.1571357,0.04882 0,0.0091 0.070715,0.03099 0.1571357,0.04883 0.2827393,0.0584 0.5390103,0.203754 0.7746443,0.439398 0.235643,0.235639 0.381003,0.491912 0.439404,0.774652 0.01786,0.08643 0.03983,0.157135 0.04882,0.157135 0.0091,0 0.03097,-0.07072 0.04882,-0.157135 z m 3.276965,0 c 0.117565,-0.569167 0.644882,-1.096493 1.214051,-1.21405 0.08643,-0.01786 0.157131,-0.03983 0.157131,-0.04883 0,-0.0091 -0.07071,-0.03097 -0.157131,-0.04882 -0.569169,-0.117562 -1.096486,-0.644882 -1.214051,-1.2140546 -0.01786,-0.086426 -0.03982,-0.1571276 -0.04882,-0.1571276 -0.0091,0 -0.03097,0.070705 -0.04882,0.1571276 -0.117561,0.5691726 -0.644881,1.0964926 -1.214058,1.2140546 -0.08643,0.01786 -0.157132,0.03984 -0.157132,0.04882 0,0.0091 0.07072,0.03099 0.157132,0.04883 0.569177,0.117557 1.096497,0.644883 1.214058,1.21405 0.01786,0.08643 0.03982,0.157135 0.04882,0.157135 0.0091,0 0.03099,-0.07072 0.04882,-0.157135 z m 3.276975,0 c 0.117553,-0.569167 0.644878,-1.096493 1.214042,-1.21405 0.08644,-0.01786 0.157136,-0.03983 0.157136,-0.04883 0,-0.0091 -0.07072,-0.03097 -0.157136,-0.04882 -0.569164,-0.117562 -1.096489,-0.644882 -1.214042,-1.2140546 -0.01786,-0.086426 -0.03983,-0.1571276 -0.04884,-0.1571276 -0.0091,0 -0.03097,0.070705 -0.04883,0.1571276 -0.117556,0.5691726 -0.644879,1.0964926 -1.214054,1.2140546 -0.08643,0.01786 -0.157134,0.03984 -0.157134,0.04882 0,0.0091 0.07072,0.03099 0.157134,0.04883 0.569175,0.117557 1.096498,0.644883 1.214054,1.21405 0.01786,0.08643 0.03984,0.157135 0.04883,0.157135 0.0091,0 0.03099,-0.07072 0.04884,-0.157135 z"
       id="path460" /></g></svg>
