<?xml version="1.0" encoding="UTF-8" standalone="no"?>
<!-- Created with Inkscape (http://www.inkscape.org/) -->

<svg
   width="96"
   height="96"
   viewBox="0 0 25.4 25.4"
   version="1.1"
   id="svg5"
   inkscape:version="1.2.2 (b0a8486541, 2022-12-01)"
   sodipodi:docname="new64.svg"
   xmlns:inkscape="http://www.inkscape.org/namespaces/inkscape"
   xmlns:sodipodi="http://sodipodi.sourceforge.net/DTD/sodipodi-0.dtd"
   xmlns="http://www.w3.org/2000/svg"
   xmlns:svg="http://www.w3.org/2000/svg">
  <sodipodi:namedview
     id="namedview7"
     pagecolor="#ffffff"
     bordercolor="#000000"
     borderopacity="0.25"
     inkscape:showpageshadow="2"
     inkscape:pageopacity="0.0"
     inkscape:pagecheckerboard="0"
     inkscape:deskcolor="#d1d1d1"
     inkscape:document-units="mm"
     showgrid="false"
     inkscape:zoom="3.1926943"
     inkscape:cx="71.413039"
     inkscape:cy="76.424481"
     inkscape:window-width="1366"
     inkscape:window-height="712"
     inkscape:window-x="0"
     inkscape:window-y="30"
     inkscape:window-maximized="1"
     inkscape:current-layer="layer1" />
  <defs
     id="defs2" />
  <g
     inkscape:label="Layer 1"
     inkscape:groupmode="layer"
     id="layer1">
    <circle
       style="opacity:1;fill:#333333;fill-opacity:1;stroke:none;stroke-width:0;stroke-linecap:round;stroke-miterlimit:0"
       id="path231"
       cx="12.7"
       cy="12.7"
       r="9.5249996" />
    <g
       aria-label="k"
       transform="rotate(-90)"
       id="text1316"
       style="font-weight:bold;font-size:18.0402px;font-family:Supermercado;-inkscape-font-specification:'Supermercado Bold';writing-mode:tb-rl;text-orientation:sideways;fill:#ffffff;stroke-width:0;stroke-linecap:round;stroke-miterlimit:0">
      <path
         d="m -13.763483,14.510576 q -0.634225,1.567947 -2.334303,1.567947 h -2.114086 q -0.431626,0 -0.643034,-0.220217 -0.581374,-0.598991 -0.299496,-1.233217 0.27307,-0.643034 0.94253,-0.643034 h 2.08766 q 0.440435,0 0.660652,-0.220217 0.387582,-0.387583 0.387582,-0.8104 V 11.92963 h -3.135894 q -0.422817,0 -0.643034,-0.229026 -0.387583,-0.378774 -0.387583,-0.704695 0,-0.325922 0.08809,-0.519713 0.07928,-0.193791 0.211409,-0.33473 0.299495,-0.3083054 0.731121,-0.3083054 h 11.6362812 q 0.4316259,0 0.6694605,0.2290264 0.3875824,0.369965 0.3875824,0.828017 0,0.440435 -0.2290259,0.651844 -0.3963911,0.387582 -0.828017,0.387582 H -13.49041 v 0.634226 l 3.417772,1.656034 q 0.281878,0.123321 0.4316257,0.387582 0.1585565,0.264261 0.1585565,0.53733 0,0.27307 -0.1321304,0.519713 -0.1233217,0.246643 -0.3787737,0.387582 -0.2554521,0.149748 -0.5373301,0.149748 -0.273069,0 -0.493287,-0.123322 z"
         id="path1532" />
    </g>
  </g>
</svg>
