<?xml version="1.0" encoding="UTF-8" standalone="no"?>
<!-- Created with Inkscape (http://www.inkscape.org/) -->

<svg
   width="96"
   height="96"
   viewBox="0 0 25.4 25.4"
   version="1.1"
   id="svg5"
   xmlns="http://www.w3.org/2000/svg"
   xmlns:svg="http://www.w3.org/2000/svg">
  <defs
     id="defs2" />
  <g
     id="g251"
     transform="matrix(0.39963737,0,0,0.39963737,-0.83438559,-0.83438565)">
    <g
       id="layer1">
      <path
         style="fill:#009900;fill-opacity:1;stroke-width:0.2"
         d="M 33.866666,33.866666 H 63.499999 L 48.683333,8.4666666 Z"
         id="path534" />
      <path
         style="fill:#00009b;fill-opacity:1;stroke-width:0.2"
         d="M 19.05,59.266667 H 48.683333 L 33.866667,33.866668 Z"
         id="path534-3" />
      <path
         style="fill:#990000;fill-opacity:1;stroke-width:0.2"
         d="M 4.2333333,33.866667 H 33.866667 L 19.050001,8.4666679 Z"
         id="path534-6" />
      <path
         style="fill:#999900;fill-opacity:1;stroke-width:0.2"
         d="M 19.05,8.4666667 33.866667,33.866667 48.683333,8.4666667 Z"
         id="path534-6-7" />
      <path
         style="fill:#009999;fill-opacity:1;stroke-width:0.2"
         d="M 63.5,33.866667 H 33.866667 l 14.816665,25.399999 z"
         id="path534-6-7-5-3" />
      <path
         style="fill:#990099;fill-opacity:1;stroke-width:0.2"
         d="M 4.2333333,33.866667 H 33.866667 L 19.050002,59.266666 Z"
         id="path534-6-7-5-3-6" />
      <g
         aria-label="k"
         transform="scale(1.0741224,0.93099259)"
         id="text3191"
         style="font-weight:bold;font-size:63.0484px;font-family:BodoniFLF;-inkscape-font-specification:'BodoniFLF Bold';fill:#ffffff;stroke-width:0.638283">
        <path
           d="m 36.949785,39.950224 q 5.479793,2.216545 5.479793,8.158118 v 7.388484 q 0,1.508483 -0.769634,2.247331 -2.093404,2.031833 -4.309949,1.046702 -2.247331,-0.954346 -2.247331,-3.294033 v -7.296128 q 0,-1.539268 -0.769634,-2.308901 -1.354555,-1.354556 -2.832252,-1.354556 h -3.571101 v 10.959585 q 0,1.477697 -0.800419,2.247331 -1.32377,1.354556 -2.462828,1.354556 -1.139059,0 -1.816336,-0.307854 -0.677278,-0.277068 -1.169844,-0.738848 -1.077487,-1.046702 -1.077487,-2.555185 v -40.66745 q 0,-1.508482 0.800419,-2.339686 1.292985,-1.354556 2.893823,-1.354556 1.539268,0 2.278116,0.800419 1.354556,1.385341 1.354556,2.893823 v 24.166502 h 2.216545 l 5.787646,-11.944717 q 0.430995,-0.985131 1.354556,-1.508482 0.92356,-0.554136 1.877906,-0.554136 0.954346,0 1.816336,0.46178 0.86199,0.430995 1.354556,1.32377 0.523351,0.892775 0.523351,1.877906 0,0.954346 -0.430995,1.72398 z"
           style="-inkscape-font-specification:'Supermercado Bold'"
           id="path3243" />
      </g>
    </g>
  </g>
</svg>
