<?xml version="1.0" encoding="UTF-8" standalone="no"?>
<!-- Uploaded to: SVG Repo, www.svgrepo.com, Generator: SVG Repo Mixer Tools -->

<svg
   width="96"
   height="96"
   viewBox="0 0 122.88 122.88"
   version="1.1"
   id="svg6"
   sodipodi:docname="scs.svg"
   inkscape:version="1.2.2 (b0a8486541, 2022-12-01)"
   xmlns:inkscape="http://www.inkscape.org/namespaces/inkscape"
   xmlns:sodipodi="http://sodipodi.sourceforge.net/DTD/sodipodi-0.dtd"
   xmlns="http://www.w3.org/2000/svg"
   xmlns:svg="http://www.w3.org/2000/svg">
  <defs
     id="defs10" />
  <sodipodi:namedview
     id="namedview8"
     pagecolor="#ffffff"
     bordercolor="#000000"
     borderopacity="0.25"
     inkscape:showpageshadow="2"
     inkscape:pageopacity="0.0"
     inkscape:pagecheckerboard="0"
     inkscape:deskcolor="#d1d1d1"
     showgrid="false"
     inkscape:zoom="2.0612163"
     inkscape:cx="133.65895"
     inkscape:cy="136.0847"
     inkscape:window-width="1440"
     inkscape:window-height="760"
     inkscape:window-x="0"
     inkscape:window-y="24"
     inkscape:window-maximized="1"
     inkscape:current-layer="svg6" />
  <g
     id="g290"
     transform="matrix(0.55500001,0,0,0.55500001,15.9744,15.9744)">
    <circle
       cx="81.919998"
       cy="81.919998"
       r="81.919998"
       style="fill:#cc2127;stroke-width:0.16"
       id="circle2" />
    <path
       d="m 78.808557,73.839881 a 6.3815114,8.2272698 16.689273 1 1 8.475423,-6.048079 6.3793693,8.2245078 16.689273 0 1 -8.475423,6.048079 z m -1.849668,19.469374 c -1.284125,3.164226 -3.090432,3.072459 -3.090432,3.072459 l -4.311626,0.708274 c 0.551922,-5.831601 2.764123,-7.071278 2.764123,-7.071278 l 5.922862,0.123655 z M 63.432123,76.112105 a 4.4664153,5.7582607 16.689273 1 1 5.93195,-4.233025 4.4664153,5.7582607 16.689273 0 1 -5.93195,4.233025 z m -10.672868,0.144692 a 1.867968,2.4082501 16.689273 1 1 2.480897,-1.770378 1.867968,2.4082501 16.689273 0 1 -2.480897,1.770378 z M 48.623909,61.846455 a 2.2149994,2.8556556 16.689273 1 1 2.041452,-3.392736 2.2149994,2.8556556 16.689273 0 1 -2.041452,3.392736 z m -5.488185,1.298342 a 1.9707922,2.5408148 16.689273 1 1 1.81622,-3.021998 1.9707922,2.5408148 16.689273 0 1 -1.81622,3.021998 z m -5.495537,1.12893 a 1.5959128,2.0575092 16.689273 1 1 1.470257,-2.442415 1.5959128,2.0575092 16.689273 0 1 -1.470257,2.442415 z m 106.413103,-18.520764 -0.0412,-0.01207 c -0.0124,-0.0033 0.007,-0.02379 -0.006,-0.03079 a 3.0461597,3.927216 16.689273 0 0 -3.77982,0.73221 2.4335005,3.137355 16.689273 0 0 -0.82298,1.834939 l -5.05078,0.950851 -0.004,-0.03857 -0.0595,-0.450336 c -0.5257,-3.796233 -1.54588,-6.965116 -2.79056,-6.692449 a 1.0153867,1.3090719 16.689273 0 0 -0.80194,0.780228 c -0.61827,1.204353 -0.92705,3.703782 -0.86178,6.678636 -0.65334,-4.690808 -1.93081,-8.747003 -3.4413,-8.415639 -0.34955,0.07683 -0.67432,0.391769 -0.95107,0.934457 -0.781,1.51595 -1.16384,4.702452 -1.06624,8.494327 -0.5586,-3.298646 -1.50097,-5.8618 -2.62353,-5.615964 a 1.0132446,1.3063102 16.689273 0 0 -0.79992,0.780848 c -0.54543,1.073361 -0.85637,3.177153 -0.86837,5.730965 -9.1e-4,0.152534 4e-5,0.305641 2.8e-4,0.4614 0,0 -4.25795,0.842595 -6.50457,1.264654 l -0.26553,0.05022 c -0.34973,-2.809308 -1.03471,-5.843112 -2.63066,-7.345121 a 0.61908589,0.79814749 16.689273 0 0 -0.74164,0.198589 L 107.6846,49.6433 a 17.904217,23.082745 16.689273 0 0 -2.16708,-2.468999 c -4.49276,-4.155212 -10.609688,-4.974249 -16.528238,-4.09036 -9.719756,1.433793 -19.417981,7.002796 -28.492137,12.444643 l -0.250181,0.155656 c -0.83705,-1.862673 -3.930837,-6.887261 -12.032212,-3.48919 -9.817674,4.117537 -27.251359,11.080956 -27.251359,11.080956 0,0 -2.357524,1.149988 -2.014056,3.689266 0.343455,2.539304 2.983849,1.915261 2.983849,1.915261 l 11.15646,-0.32552 c 0,0 5.796055,-0.684171 7.960718,0.979749 -1.407545,1.256016 -2.795407,2.558335 -4.117712,3.955251 -1.470943,1.557054 -2.215263,2.458347 -2.209567,4.982879 l -0.0073,0.02379 c 0.07255,0.996286 0.153635,1.986467 0.243721,2.976468 0,0 0.01231,0.0033 0.01234,0.01814 0.357014,2.203142 1.076778,2.756269 2.59594,3.373182 0.977688,0.394056 1.97929,0.723196 2.988845,1.025874 -0.178595,0.871953 -0.372336,2.316034 0.268656,2.505324 0.92133,0.276227 6.137458,-0.330989 2.625638,10.11439 -3.511811,10.44538 -7.856036,18.52778 -9.31146,22.82278 -1.455417,4.29502 -3.666144,11.76574 5.352933,13.61635 9.019089,1.85058 14.423676,-4.38295 15.593483,-5.8083 1.169804,-1.42533 1.900783,-5.0495 0.261564,-7.82444 -1.639244,-2.77498 -0.843232,-4.98993 0.202613,-5.94211 1.045835,-0.95219 2.455366,-3.66941 0.966623,-7.14025 -1.109096,-2.58143 0.544566,-6.94095 3.480842,-7.17932 2.936239,-0.23838 13.441824,-2.08529 13.441824,-2.08529 0,0 3.589678,-0.12033 5.590715,-5.511693 1.220351,-3.287171 2.234501,-4.857204 2.838534,-5.58143 a 0.28490805,0.3673135 16.689273 0 0 -0.01931,-0.56225 c 0.4334,-0.08054 0.867722,-0.149251 1.300201,-0.241614 l 0.09553,-0.02047 c 0.764494,-0.162904 1.52692,-0.326439 2.288606,-0.524786 1.049165,-0.262104 2.053375,-0.56073 3.014032,-0.878208 l 0.249612,-0.08662 q 1.765389,-0.592278 3.340336,-1.287791 l 0.07305,-0.02719 0.04444,-0.02136 0.779763,-0.36305 0.154074,0.02319 0.03096,-0.103237 c 0.193884,-0.09467 0.391218,-0.171035 0.584152,-0.277525 0.192942,-0.106489 0.414305,-0.195815 0.6191,-0.304529 0.297222,-0.155977 0.573937,-0.318073 0.860921,-0.477108 4.461327,-2.468281 8.668027,-6.019165 11.666167,-10.999158 a 18.069163,23.295402 16.689273 0 0 2.09929,-4.272062 l 2.7448,2.973797 a 0.58695338,0.75672113 16.689273 0 0 0.78263,-0.27569 c 0.43782,-1.11717 0.62969,-2.406102 0.79169,-3.565599 a 27.102682,34.941744 16.689273 0 0 0.37375,-6.020537 l 6.84209,-2.599299 0.0661,0.406159 c 0.51609,3.089848 1.35992,5.660941 2.56182,5.836752 a 0.69620382,0.89757065 16.689273 0 0 0.24698,-0.01826 0.79260129,1.0218489 16.689273 0 0 0.53088,-0.457848 c 0.69071,-1.073062 0.96251,-3.889199 0.92829,-6.825902 0.61977,4.303026 1.71808,8.0691 3.32524,8.302989 a 0.79474344,1.0246107 16.689273 0 0 0.28791,-0.02045 0.94469565,1.217934 16.689273 0 0 0.62542,-0.541956 c 0.96494,-1.495411 1.26665,-5.761492 1.11407,-9.907149 0.49844,3.424758 1.3807,6.419672 2.68298,6.61116 a 0.6790665,0.87547664 16.689273 0 0 0.24701,-0.01826 0.79045913,1.0190872 16.689273 0 0 0.53087,-0.457856 c 0.76935,-1.193628 1.01882,-4.546982 0.90687,-7.821267 l -0.0175,-0.42622 3.67321,-1.398483 1.51193,-0.567357 a 2.3435295,3.021361 16.689273 0 0 0.43073,0.495298 c 0.99982,0.827383 2.57562,0.561725 3.62431,-0.519334 a 2.4463535,3.1539256 16.689273 0 0 0.1879,-4.871079 z"
       style="fill:#ffffff;stroke-width:0.243232"
       id="path4" />
  </g>
</svg>
