<?xml version="1.0" encoding="UTF-8" standalone="no"?>
<!-- Uploaded to: SVG Repo, www.svgrepo.com, Generator: SVG Repo Mixer Tools -->

<svg
   width="800px"
   height="800px"
   viewBox="0 0 1024 1024"
   version="1.1"
   id="svg6"
   xmlns="http://www.w3.org/2000/svg"
   xmlns:svg="http://www.w3.org/2000/svg">
  <defs
     id="defs10" />
  <circle
     cx="512"
     cy="512"
     r="81.919998"
     style="fill:#cc2127;stroke-width:0.16"
     id="circle2" />
  <path
     d="m 503.48068,499.36157 a 6.990017,9.0117767 10.145158 1 1 8.46809,-7.63966 6.9876707,9.0087514 10.145158 0 1 -8.46809,7.63966 z m 0.41763,21.41782 c -1.0024,3.60367 -2.97951,3.7293 -2.97951,3.7293 l -4.60357,1.309 c -0.12738,-6.41495 2.12522,-8.04015 2.12522,-8.04015 l 6.4608,-0.60482 z m -16.86688,-17.02562 a 4.892308,6.3073366 10.145158 1 1 5.92682,-5.34697 4.892308,6.3073366 10.145158 0 1 -5.92682,5.34697 z m -11.59634,1.48981 a 2.0460871,2.6378875 10.145158 1 1 2.47875,-2.23626 2.0460871,2.6378875 10.145158 0 1 -2.47875,2.23626 z m -6.29908,-15.16535 a 2.4262095,3.1279551 10.145158 1 1 1.79801,-3.94688 2.4262095,3.1279551 10.145158 0 1 -1.79801,3.94688 z m -5.81026,2.098 a 2.158716,2.7830928 10.145158 1 1 1.59919,-3.51532 2.158716,2.7830928 10.145158 0 1 -1.59919,3.51532 z m -5.83941,1.91456 a 1.7480902,2.2537019 10.145158 1 1 1.29506,-2.84142 1.7480902,2.2537019 10.145158 0 1 -1.29506,2.84142 z m 113.48856,-33.43876 -0.0463,-0.008 c -0.0139,-0.002 0.005,-0.0268 -0.0108,-0.0327 a 3.3366246,4.3016936 10.145158 0 0 -4.02187,1.26866 2.6655456,3.4365158 10.145158 0 0 -0.66651,2.09955 l -5.37765,1.66525 -0.009,-0.0415 -0.12102,-0.48263 c -1.04599,-4.0655 -2.55175,-7.38658 -3.87219,-6.93448 a 1.1122084,1.4338978 10.145158 0 0 -0.77529,0.94917 c -0.52247,1.38778 -0.54647,4.14625 -0.10408,7.37539 -1.29655,-5.02306 -3.19307,-9.27761 -4.79545,-8.72845 -0.37079,0.12725 -0.6849,0.51051 -0.91832,1.13562 -0.66065,1.74718 -0.67948,5.26258 -0.0999,9.37678 -1.01967,-3.51991 -2.36514,-6.19154 -3.55605,-5.78388 a 1.109862,1.4308727 10.145158 0 0 -0.773,0.94959 c -0.45956,1.23614 -0.5353,3.56434 -0.22955,6.34494 0.018,0.16611 0.0382,0.3326 0.0579,0.50207 0,0 -4.52839,1.44847 -6.92052,2.18822 l -0.28268,0.0878 c -0.73128,-3.01348 -1.85541,-6.22941 -3.77966,-7.66469 a 0.67811849,0.87425442 10.145158 0 0 -0.78227,0.30869 l -2.00746,4.19827 a 19.611464,25.283788 10.145158 0 0 -2.66643,-2.41629 c -5.40781,-3.96092 -12.16661,-4.0886 -18.49694,-2.38789 -10.39822,2.77365 -20.25679,10.04462 -29.45211,17.09931 l -0.25282,0.20062 c -1.14342,-1.9225 -5.13738,-7.00413 -13.52924,-2.29495 -10.16975,5.70637 -28.27211,15.46043 -28.27211,15.46043 0,0 -2.42194,1.54574 -1.73118,4.26615 0.69075,2.72044 3.48617,1.71173 3.48617,1.71173 l 12.10002,-1.74696 c 0,0 6.22196,-1.46808 8.7853,0.0724 -1.37492,1.54253 -2.72264,3.13299 -3.98721,4.81821 -1.40633,1.87804 -2.1038,2.95176 -1.78245,5.69829 l -0.005,0.0268 c 0.20332,1.07512 0.41517,2.14253 0.63679,3.20862 0,0 0.0138,0.002 0.0157,0.0182 0.66354,2.35293 1.51585,2.865 3.24604,3.34669 1.11313,0.30677 2.24418,0.53991 3.38058,0.74326 -0.0855,0.97117 -0.11606,2.56683 0.60511,2.6928 1.03709,0.18558 6.63757,-1.12636 4.1199,10.67888 -2.51766,11.80524 -6.23615,21.14297 -7.2838,25.99855 -1.04764,4.8556 -2.52078,13.26135 7.52496,14.14931 10.04575,0.88794 15.14895,-6.57019 16.24402,-8.26731 1.09507,-1.6971 1.43811,-5.73223 -0.69213,-8.54735 -2.13027,-2.81514 -1.54054,-5.32486 -0.5213,-6.4916 1.01923,-1.16674 2.2139,-4.29963 0.16054,-7.89081 -1.52919,-2.67069 -0.27387,-7.62124 2.89168,-8.24719 3.16551,-0.62595 14.36731,-3.94727 14.36731,-3.94727 0,0 3.89133,-0.57906 5.39586,-6.69584 0.91765,-3.7295 1.82527,-5.56464 2.39218,-6.42816 a 0.3120753,0.40233848 10.145158 0 0 -0.0912,-0.60944 c 0.46158,-0.14175 0.92564,-0.27074 1.38474,-0.42524 l 0.1014,-0.0342 c 0.8116,-0.27271 1.62087,-0.54585 2.42499,-0.85678 1.109,-0.4162 2.16452,-0.86653 3.17029,-1.33194 l 0.26082,-0.12542 q 1.84719,-0.86491 3.47425,-1.81839 l 0.0761,-0.0387 0.0457,-0.0288 0.80323,-0.49242 0.17056,0.006 0.0208,-0.11621 c 0.19917,-0.12723 0.40438,-0.23496 0.60104,-0.37493 0.19667,-0.13997 0.42641,-0.26481 0.6357,-0.40868 0.30397,-0.20684 0.58486,-0.41778 0.87731,-0.62667 4.54677,-3.24296 8.68129,-7.63224 11.32224,-13.42583 a 19.792138,25.516723 10.145158 0 0 1.75119,-4.911 l 3.35816,2.89349 a 0.64292201,0.82887787 10.145158 0 0 0.81726,-0.39771 c 0.33698,-1.27038 0.38487,-2.69697 0.41642,-3.97898 a 29.687044,38.273595 10.145158 0 0 -0.34486,-6.59831 l 7.1212,-3.68274 0.12262,0.43374 c 0.94734,3.298 2.18657,5.99057 3.51645,6.03185 a 0.76258996,0.98315802 10.145158 0 0 0.26649,-0.0507 0.86817936,1.1192868 10.145158 0 0 0.52055,-0.56451 c 0.61769,-1.25395 0.56191,-4.35245 0.15807,-7.54395 1.21161,4.60526 2.87695,8.56646 4.65509,8.62035 a 0.87052578,1.1223119 10.145158 0 0 0.31076,-0.0582 1.0347766,1.3340694 10.145158 0 0 0.61293,-0.66784 c 0.86338,-1.74779 0.65916,-6.42788 -0.0244,-10.92021 0.96993,3.66466 2.30389,6.81364 3.74497,6.85945 a 0.74381852,0.95895725 10.145158 0 0 0.26651,-0.0507 0.86583294,1.1162617 10.145158 0 0 0.52055,-0.56452 c 0.68822,-1.39497 0.54107,-5.07529 0.0105,-8.62445 l -0.0723,-0.46163 3.82267,-1.9804 1.57448,-0.80615 a 2.5669955,3.3094613 10.145158 0 0 0.53056,0.48522 c 1.19131,0.77556 2.87296,0.28975 3.87921,-1.01759 a 2.6796242,3.4546665 10.145158 0 0 -0.40361,-5.32425 z"
     style="fill:#ffffff;stroke-width:0.266425"
     id="path4" />
</svg>
