<?xml version="1.0" encoding="UTF-8" standalone="no"?>
<svg
   width="96"
   height="96"
   viewBox="0 0 9.8304 9.8304"
   preserveAspectRatio="xMinYMin"
   version="1.1"
   id="svg6"
   sodipodi:docname="svgemblem.svg"
   inkscape:version="1.2.2 (b0a8486541, 2022-12-01)"
   xmlns:inkscape="http://www.inkscape.org/namespaces/inkscape"
   xmlns:sodipodi="http://sodipodi.sourceforge.net/DTD/sodipodi-0.dtd"
   xmlns="http://www.w3.org/2000/svg"
   xmlns:svg="http://www.w3.org/2000/svg">
  <defs
     id="defs10" />
  <sodipodi:namedview
     id="namedview8"
     pagecolor="#ffffff"
     bordercolor="#000000"
     borderopacity="0.25"
     inkscape:showpageshadow="2"
     inkscape:pageopacity="0.0"
     inkscape:pagecheckerboard="0"
     inkscape:deskcolor="#d1d1d1"
     showgrid="false"
     inkscape:zoom="3.4624"
     inkscape:cx="85.489834"
     inkscape:cy="43.322551"
     inkscape:window-width="1366"
     inkscape:window-height="721"
     inkscape:window-x="0"
     inkscape:window-y="24"
     inkscape:window-maximized="1"
     inkscape:current-layer="svg6" />
  <path
     d="m 8.1889593,5.624035 c 0.3908543,-0.3908544 0.3908264,-1.0268156 0,-1.41767 C 7.9996409,4.0170188 7.7478952,3.9127779 7.4801382,3.9127779 c -0.063599,0 -0.1261657,0.0058 -0.1872263,0.017211 0.2660555,-0.1819822 0.4384978,-0.4880101 0.4384978,-0.8282922 0,-0.5527526 -0.4497113,-1.002436 -1.0024639,-1.002436 -0.3409516,0 -0.6475095,0.1730839 -0.82938,0.4400598 C 5.9597337,2.2219673 5.8653674,1.8827731 5.6242494,1.641683 5.4349869,1.4523368 5.1832133,1.3480681 4.9154842,1.3480681 c -0.2677849,0 -0.5195027,0.1042687 -0.708849,0.2936149 C 3.9655451,1.8827731 3.8711789,2.2219673 3.9313189,2.5393203 3.7494762,2.2723723 3.4429183,2.0992605 3.1019388,2.0992605 c -0.5527247,0 -1.0024081,0.4496555 -1.0024081,1.002436 0,0.34031 0.1723865,0.64631 0.438442,0.8282922 A 1.0177779,1.0177779 0 0 0 2.3507743,3.9127779 c -0.2677849,0 -0.5195027,0.1042688 -0.708821,0.293615 -0.1893742,0.1893183 -0.2936429,0.441064 -0.2936429,0.7087931 0,0.2677849 0.1042687,0.5195027 0.293615,0.708849 0.1893183,0.1893183 0.441064,0.293615 0.7087931,0.293615 0.063599,0 0.1261658,-0.0058 0.1872263,-0.017239 -0.2660555,0.18201 -0.438442,0.488038 -0.438442,0.8283201 0,0.5527247 0.4496555,1.0024081 1.0024081,1.0024081 0.3409795,0 0.6475653,-0.1731118 0.829408,-0.4400599 -0.060168,0.3173809 0.034198,0.6565751 0.2753163,0.8976373 0.1893184,0.1893463 0.4410641,0.293615 0.7087932,0.293615 0.2677849,0 0.5195306,-0.1042687 0.7088489,-0.293615 0.2410901,-0.2410901 0.3354564,-0.5802843 0.2752885,-0.8976373 0.1818705,0.2669481 0.4884284,0.4400599 0.82938,0.4400599 0.5527526,0 1.002436,-0.4496555 1.002436,-1.0024081 0,-0.34031 -0.1723865,-0.6463101 -0.4384699,-0.8283201 0.061061,0.011437 0.1236553,0.017239 0.1872263,0.017239 0.267757,0 0.5195027,-0.1042967 0.7088211,-0.293615"
     id="path2"
     style="stroke-width:0.0278943;fill:#4d4d4d" />
  <path
     d="m 7.8864739,4.5086551 c -0.2245209,-0.224493 -0.588541,-0.224493 -0.8130619,0 H 5.8967205 l 0.8320579,-0.83203 c 0.3175204,0 0.5749007,-0.2574082 0.5749007,-0.5749286 0,-0.3175203 -0.2573803,-0.5749565 -0.5749007,-0.5749565 -0.3175482,0 -0.5749286,0.2574362 -0.5749286,0.5749565 L 5.3217919,3.9337544 V 2.757035 c 0.2245209,-0.2245209 0.2245209,-0.588541 0,-0.8130619 -0.2245487,-0.2245487 -0.5885688,-0.2245487 -0.8130897,0 -0.2245209,0.2245488 -0.2245209,0.5885689 0,0.8130619 v 1.1767194 l -0.83203,-0.8320858 c 0,-0.3174924 -0.2574083,-0.5749007 -0.5749286,-0.5749007 -0.3175204,0 -0.5749286,0.2574083 -0.5749286,0.5749007 0,0.3175483 0.2574082,0.5749565 0.5749007,0.5749565 l 0.8320858,0.83203 H 2.7570821 c -0.2245488,-0.2245209 -0.5885689,-0.224493 -0.8131177,0 -0.224493,0.2245488 -0.224493,0.5885689 0,0.8131177 0.2245488,0.224493 0.5885689,0.224493 0.8131177,0 H 3.9337457 L 3.1017436,6.1537749 c -0.3175204,0 -0.5749286,0.2573803 -0.5749286,0.5749007 0,0.3175482 0.2574082,0.5749564 0.5749007,0.5749564 0.3175482,0 0.5749565,-0.2574082 0.5749565,-0.5749285 l 0.83203,-0.8320579 V 7.073337 c -0.2245209,0.2245209 -0.2245209,0.5885689 0,0.8130898 0.2245488,0.2245209 0.5885688,0.2245209 0.8131176,0 0.224493,-0.2245488 0.224493,-0.5885689 0,-0.8131177 V 5.8966456 l 0.83203,0.8320579 c 0,0.3175203 0.2573804,0.5749007 0.5749007,0.5749007 0.3175483,0 0.5749565,-0.2573804 0.5749565,-0.5749007 0,-0.3175483 -0.2574082,-0.5749286 -0.5749286,-0.5749286 L 5.8966926,5.321717 H 7.073412 c 0.2245488,0.2245488 0.5885689,0.2245488 0.8130619,0 0.2245488,-0.2245209 0.2245488,-0.5885689 0,-0.8130898"
     fill="#ddbb44"
     id="path4"
     style="stroke-width:0.0278943" />
</svg>
