<?xml version="1.0" encoding="UTF-8" standalone="no"?>
<svg
   viewBox="0 0 48 48"
   width="96"
   height="96"
   version="1.1"
   id="svg2159"
   sodipodi:docname="svgFiddle.svg"
   inkscape:version="1.1.2 (0a00cf5339, 2022-02-04)"
   xmlns:inkscape="http://www.inkscape.org/namespaces/inkscape"
   xmlns:sodipodi="http://sodipodi.sourceforge.net/DTD/sodipodi-0.dtd"
   xmlns:xlink="http://www.w3.org/1999/xlink"
   xmlns="http://www.w3.org/2000/svg"
   xmlns:svg="http://www.w3.org/2000/svg">
  <sodipodi:namedview
     id="namedview19"
     pagecolor="#ffffff"
     bordercolor="#666666"
     borderopacity="1.0"
     inkscape:pageshadow="2"
     inkscape:pageopacity="0.0"
     inkscape:pagecheckerboard="0"
     showgrid="false"
     inkscape:zoom="6.7708333"
     inkscape:cx="45.784616"
     inkscape:cy="48.073846"
     inkscape:window-width="1440"
     inkscape:window-height="838"
     inkscape:window-x="0"
     inkscape:window-y="25"
     inkscape:window-maximized="1"
     inkscape:current-layer="svg2159" />
  <defs
     id="defs2144">
    <path
       id="A"
       d="M 44.5,20 H 24 v 8.5 H 35.8 C 34.7,33.9 30.1,37 24,37 16.8,37 11,31.2 11,24 c 0,-7.2 5.8,-13 13,-13 3.1,0 5.9,1.1 8.1,2.9 L 38.5,7.5 C 34.6,4.1 29.6,2 24,2 11.8,2 2,11.8 2,24 c 0,12.2 9.8,22 22,22 11,0 21,-8 21,-22 0,-1.3 -0.2,-2.7 -0.5,-4 z" />
  </defs>
  <clipPath
     id="B">
    <use
       xlink:href="#A"
       id="use2146" />
  </clipPath>
  <rect
     style="fill:none;stroke-width:0.62203"
     id="rect358"
     width="48"
     height="48"
     x="0"
     y="0"
     rx="5"
     ry="5" />
  <path
     fill="#e34f26"
     d="M 12.068662,37.192374 9.4172532,7.444864 H 38.582747 l -2.651409,29.74751 -11.963672,3.362762"
     id="path1263"
     style="fill:#ffa214;fill-opacity:1;stroke-width:0.0646685" />
  <path
     fill="#ef652a"
     d="M 24.032334,37.968396 33.667941,35.316988 35.931338,9.8375985 H 24.032334"
     id="path1265"
     style="fill:#ffc870;fill-opacity:1;stroke-width:0.0646685" />
  <g
     id="g3109"
     transform="matrix(0.13999852,0,0,0.13999852,8.3551658,21.375028)">
    <g
       stroke-width="38.0086"
       stroke="#000000"
       id="g2973"
       transform="matrix(0.5,0,0,0.5,36.749997,-56.25)">
      <g
         id="svgstar"
         transform="translate(150,150)">
        <path
           id="svgbar"
           fill="#ffb13b"
           d="m -84.1487,-15.8513 a 22.4171,22.4171 0 1 0 0,31.7026 H 84.1487 a 22.4171,22.4171 0 1 0 0,-31.7026 z" />
        <use
           xlink:href="#svgbar"
           transform="rotate(45)"
           id="use2966"
           x="0"
           y="0"
           width="100%"
           height="100%" />
        <use
           xlink:href="#svgbar"
           transform="rotate(90)"
           id="use2968"
           x="0"
           y="0"
           width="100%"
           height="100%" />
        <use
           xlink:href="#svgbar"
           transform="rotate(135)"
           id="use2970"
           x="0"
           y="0"
           width="100%"
           height="100%" />
      </g>
    </g>
    <use
       xlink:href="#svgstar"
       id="use2975"
       x="0"
       y="0"
       width="100%"
       height="100%"
       transform="matrix(0.5,0,0,0.5,36.749997,-56.25)" />
  </g>
</svg>
