<?xml version="1.0" encoding="UTF-8" standalone="no"?>
<svg
   version="1.1"
   x="0"
   y="0"
   viewBox="0 0 96.000002 96.000001"
   xml:space="preserve"
   id="svg28"
   sodipodi:docname="translate.svg"
   inkscape:version="1.2.1 (9c6d41e4, 2022-07-14)"
   width="96"
   height="96"
   xmlns:inkscape="http://www.inkscape.org/namespaces/inkscape"
   xmlns:sodipodi="http://sodipodi.sourceforge.net/DTD/sodipodi-0.dtd"
   xmlns="http://www.w3.org/2000/svg"
   xmlns:svg="http://www.w3.org/2000/svg"><defs
   id="defs32" /><sodipodi:namedview
   id="namedview30"
   pagecolor="#ffffff"
   bordercolor="#000000"
   borderopacity="0.25"
   inkscape:showpageshadow="2"
   inkscape:pageopacity="0.0"
   inkscape:pagecheckerboard="0"
   inkscape:deskcolor="#d1d1d1"
   showgrid="false"
   inkscape:zoom="1.357645"
   inkscape:cx="10.680259"
   inkscape:cy="74.393526"
   inkscape:window-width="1309"
   inkscape:window-height="430"
   inkscape:window-x="122"
   inkscape:window-y="40"
   inkscape:window-maximized="0"
   inkscape:current-layer="svg28" />
  
  
  
  
  
  <linearGradient
   id="a"
   gradientUnits="userSpaceOnUse"
   x1="534.29999"
   y1="433.20001"
   x2="998.09998"
   y2="433.20001">
    <stop
   offset="0"
   stop-color="#fff"
   stop-opacity=".2"
   id="stop12" />
    <stop
   offset="1"
   stop-color="#fff"
   stop-opacity=".02"
   id="stop14" />
  </linearGradient>
  
  <g
   id="g457"
   transform="matrix(0.06412183,0,0,0.06410899,16.000001,15.999998)"><path
     fill="#dbdbdb"
     d="m 931.7,998.3 c 36.5,0 66.4,-29.4 66.4,-65.4 V 265.8 c 0,-36 -29.9,-65.4 -66.4,-65.4 H 283.6 l 260.1,797.9 z"
     id="path2" /><path
     fill="#dcdcdc"
     d="m 931.7,230.4 c 9.7,0 18.9,3.8 25.8,10.6 6.8,6.7 10.6,15.5 10.6,24.8 v 667.1 c 0,9.3 -3.7,18.1 -10.6,24.8 -6.9,6.8 -16.1,10.6 -25.8,10.6 H 565.5 L 324.9,230.4 h 606.8 m 0,-30 H 283.6 l 260.1,797.9 h 388 c 36.5,0 66.4,-29.4 66.4,-65.4 V 265.8 c 0,-36 -29.9,-65.4 -66.4,-65.4 z"
     id="path4" /><polygon
     fill="#4352b8"
     points="482.3,809.8 543.7,998.3 714.4,809.8 "
     id="polygon6" /><path
     fill="#607988"
     d="M 936.1,476.1 V 437 H 747.6 V 373.8 H 686.4 V 437 H 566.1 v 39.1 h 239.4 c -12.8,45.1 -41.1,87.7 -68.7,120.8 -48.9,-57.9 -49.1,-76.7 -49.1,-76.7 h -50.8 c 0,0 2.1,28.2 70.7,108.6 -22.3,22.8 -39.2,36.3 -39.2,36.3 l 15.6,48.8 c 0,0 23.6,-20.3 53.1,-51.6 29.6,32.1 67.8,70.7 117.2,116.7 l 32.1,-32.1 C 833.5,698.9 794.7,660.8 766.2,630.2 804.4,585 843.2,528.1 851.4,476 H 936 v 0.1 z"
     id="path8" /><path
     fill="#4285f4"
     d="M 66.4,0 C 29.9,0 0,29.9 0,66.5 v 677 c 0,36.5 29.9,66.4 66.4,66.4 H 714.5 L 454.4,0 Z"
     id="path10" /><path
     fill="url(#a)"
     d="m 534.3,200.4 h 397.4 c 36.5,0 66.4,29.4 66.4,65.4 V 666 Z"
     id="path17"
     style="fill:url(#a)" /><path
     fill="#eeeeee"
     d="m 371.4,430.6 c -2.5,30.3 -28.4,75.2 -91.1,75.2 -54.3,0 -98.3,-44.9 -98.3,-100.2 0,-55.3 44,-100.2 98.3,-100.2 30.9,0 51.5,13.4 63.3,24.3 l 41.2,-39.6 c -27.1,-25 -62.4,-40.6 -104.5,-40.6 -86.1,0 -156,69.9 -156,156 0,86.1 69.9,156 156,156 90.2,0 149.8,-63.3 149.8,-152.6 0,-12.8 -1.6,-22.2 -3.7,-31.8 h -146 v 53.4 z"
     id="path19" /></g>
  <radialGradient
   id="b"
   cx="65.208"
   cy="19.365999"
   r="1398.271"
   gradientUnits="userSpaceOnUse"
   gradientTransform="translate(-454.4,66.5)">
    <stop
   offset="0"
   stop-color="#fff"
   stop-opacity=".1"
   id="stop21" />
    <stop
   offset="1"
   stop-color="#fff"
   stop-opacity="0"
   id="stop23" />
  </radialGradient>
  
</svg>
