<?xml version="1.0" encoding="UTF-8" standalone="no"?>
<!-- Created with Inkscape (http://www.inkscape.org/) -->

<svg
   width="96"
   height="96"
   viewBox="0 0 25.4 25.4"
   version="1.1"
   id="svg5"
   xml:space="preserve"
   inkscape:version="1.2.1 (9c6d41e4, 2022-07-14)"
   sodipodi:docname="yahoofin.svg"
   xmlns:inkscape="http://www.inkscape.org/namespaces/inkscape"
   xmlns:sodipodi="http://sodipodi.sourceforge.net/DTD/sodipodi-0.dtd"
   xmlns="http://www.w3.org/2000/svg"
   xmlns:svg="http://www.w3.org/2000/svg"><sodipodi:namedview
     id="namedview7"
     pagecolor="#ffffff"
     bordercolor="#000000"
     borderopacity="0.25"
     inkscape:showpageshadow="2"
     inkscape:pageopacity="0.0"
     inkscape:pagecheckerboard="0"
     inkscape:deskcolor="#d1d1d1"
     inkscape:document-units="mm"
     showgrid="false"
     inkscape:zoom="3.3638608"
     inkscape:cx="66.441513"
     inkscape:cy="88.588684"
     inkscape:window-width="1440"
     inkscape:window-height="788"
     inkscape:window-x="0"
     inkscape:window-y="25"
     inkscape:window-maximized="0"
     inkscape:current-layer="layer1" /><defs
     id="defs2" /><g
     inkscape:label="Layer 1"
     inkscape:groupmode="layer"
     id="layer1"><rect
       style="fill:none;stroke-width:1.23426;stroke-linecap:round"
       id="rect356"
       width="25.4"
       height="25.4"
       x="0"
       y="0"
       rx="2.6458333"
       ry="2.6458333" /><path
       style="fill:#873fef;fill-opacity:1;stroke-width:0.0640301"
       d="m 10.267845,15.573413 c 0,-0.528414 -0.01183,-0.585361 -0.128061,-0.615752 -0.09623,-0.02516 -0.128062,-0.08734 -0.128062,-0.250125 0,-0.173951 0.02527,-0.216638 0.128062,-0.216638 0.09732,0 0.128061,-0.04269 0.128061,-0.177842 0,-0.09781 0.04329,-0.239675 0.09624,-0.315248 0.118165,-0.168706 0.496014,-0.30121 0.707535,-0.248121 0.128674,0.0323 0.156675,0.07915 0.156675,0.262206 0,0.194209 -0.02031,0.222886 -0.157822,0.222886 -0.09229,0 -0.186281,0.05317 -0.22636,0.128061 -0.06253,0.116834 -0.0487,0.128058 0.157821,0.128058 0.215218,0 0.226361,0.01084 0.226361,0.220048 0,0.201457 -0.0176,0.221744 -0.208095,0.240113 l -0.2081,0.02006 -0.01844,0.592276 -0.01843,0.592276 h -0.253724 -0.253708 z m 1.214361,0.550249 c -0.0018,-0.01761 -0.0032,-0.384982 -0.0048,-0.816382 l -0.0023,-0.784365 0.260876,-0.0197 0.260872,-0.0197 v 0.836072 0.836069 h -0.256121 c -0.140864,0 -0.257117,-0.01441 -0.258327,-0.03201 z m 0.813254,-0.01067 c -0.02348,-0.02348 -0.0427,-0.398054 -0.0427,-0.83239 v -0.789704 h 0.288139 c 0.218091,0 0.288129,0.02423 0.288129,0.09968 0,0.09022 0.01348,0.09022 0.142308,0 0.231868,-0.162404 0.593626,-0.129082 0.749462,0.06904 0.114979,0.146168 0.132707,0.257874 0.132707,0.83607 v 0.667361 l -0.268242,-0.0197 -0.268241,-0.0197 0.01605,-0.385666 c 0.01903,-0.456628 -0.0694,-0.734858 -0.233536,-0.734858 -0.213942,0 -0.270507,0.136573 -0.270507,0.653106 v 0.499428 h -0.245447 c -0.134995,0 -0.26466,-0.01921 -0.288135,-0.04269 z m 2.076421,-0.122065 c -0.251261,-0.211423 -0.355839,-0.576175 -0.2635,-0.919086 0.126419,-0.469482 0.643751,-0.721345 1.042893,-0.50773 0.102632,0.05493 0.14289,0.05493 0.161201,0 0.01343,-0.04027 0.151664,-0.07321 0.307202,-0.07321 h 0.282795 v 0.832388 0.832391 h -0.288129 c -0.218096,0 -0.288134,-0.02424 -0.288134,-0.09968 0,-0.09021 -0.01348,-0.09021 -0.142309,0 -0.222044,0.155524 -0.584357,0.126491 -0.812019,-0.06508 z m 0.877489,-0.424326 c 0.04228,-0.04227 0.07684,-0.15175 0.07684,-0.243313 0,-0.214809 -0.109066,-0.32015 -0.331482,-0.32015 -0.119009,0 -0.212493,0.05294 -0.282686,0.160075 -0.09716,0.148286 -0.09716,0.171864 0,0.320149 0.114271,0.174413 0.401649,0.21893 0.53733,0.08324 z M 16.158594,15.32329 V 14.4909 h 0.28814 c 0.218092,0 0.288129,0.02423 0.288129,0.09967 0,0.09022 0.01348,0.09022 0.142309,0 0.231867,-0.162404 0.593624,-0.129083 0.749466,0.06904 0.114976,0.146169 0.132706,0.257874 0.132706,0.836071 v 0.667361 l -0.272125,-0.0197 -0.272126,-0.0197 -0.032,-0.543622 c -0.02696,-0.457583 -0.05023,-0.547092 -0.147142,-0.565548 -0.230606,-0.04393 -0.301069,0.105109 -0.301069,0.636785 v 0.5044 h -0.288129 -0.288138 z m 2.225851,0.733718 c -0.228143,-0.12582 -0.36898,-0.405877 -0.36898,-0.733718 0,-0.545176 0.334188,-0.855159 0.88375,-0.819753 l 0.300799,0.01938 0.01966,0.271939 c 0.01913,0.263503 0.01495,0.270122 -0.134366,0.213366 -0.221233,-0.08411 -0.456348,0.04871 -0.482216,0.272401 -0.0305,0.263921 0.09615,0.378226 0.388231,0.350371 l 0.246681,-0.02352 -0.01898,0.258099 -0.01898,0.258097 -0.320146,0.01501 c -0.19199,0.009 -0.390314,-0.0237 -0.495428,-0.08166 z m 1.353291,-0.04731 c -0.465611,-0.312412 -0.465611,-1.060396 0,-1.37281 0.259496,-0.174118 0.688027,-0.194194 0.975207,-0.04568 0.204408,0.105701 0.37596,0.424212 0.37596,0.698019 0,0.161479 -0.0023,0.162132 -0.576273,0.162132 -0.316946,0 -0.576269,0.02305 -0.576269,0.05122 0,0.174277 0.410697,0.280823 0.549075,0.142443 0.06793,-0.06792 0.539437,0.04705 0.539437,0.131534 0,0.02617 -0.08865,0.122189 -0.197008,0.213362 -0.266178,0.223975 -0.772129,0.233157 -1.090129,0.01978 z m 0.774894,-0.943897 c 0,-0.03598 -0.07325,-0.09878 -0.162784,-0.139574 -0.139786,-0.06369 -0.182515,-0.05445 -0.302368,0.06541 l -0.139576,0.139574 h 0.302364 c 0.166301,0 0.302364,-0.02943 0.302364,-0.06541 z M 3.9929126,14.466544 c 0,-0.01624 0.095099,-0.25512 0.211328,-0.530836 l 0.2113281,-0.501302 -0.6202821,-1.456679 -0.6202867,-1.456681 0.5530234,0.0012 0.5530235,0.0012 0.3194409,0.831125 c 0.175697,0.457118 0.3341747,0.830689 0.3521691,0.830158 0.017975,-5.04e-4 0.1727577,-0.375105 0.3439011,-0.832388 l 0.3111866,-0.831432 h 0.5338781 0.5338873 l -0.065177,0.176082 c -0.035814,0.09685 -0.4019792,0.982859 -0.8136297,1.96892 l -0.748439,1.792837 -0.5276782,0.0186 c -0.2902207,0.01024 -0.5276737,0.0054 -0.5276737,-0.01094 z M 7.2658152,13.296032 C 6.9924378,13.151902 6.8797209,13.041325 6.7215642,12.762092 6.5506271,12.460299 6.5221543,12.34582 6.5225258,11.961719 c 0.00137,-0.840459 0.5020442,-1.438337 1.2512629,-1.49253 0.3020518,-0.02185 0.4225873,-3.03e-4 0.6067679,0.10834 0.2737491,0.16152 0.2865383,0.163286 0.2865383,0.03956 0,-0.07683 0.096053,-0.09604 0.4802301,-0.09604 h 0.4802161 v 1.440673 1.440673 H 9.147325 c -0.4398987,0 -0.4802301,-0.01091 -0.4802301,-0.129977 0,-0.12824 -0.00226,-0.1281 -0.1901006,0.01057 -0.1201825,0.08885 -0.3144837,0.150531 -0.5282514,0.167685 -0.2801415,0.02248 -0.3972743,-0.0041 -0.6829277,-0.154643 z m 1.1972889,-0.885915 c 0.3197251,-0.269029 0.3211789,-0.626745 0.00367,-0.922474 -0.4479786,-0.417355 -1.1880212,0.129096 -0.9507104,0.70201 0.1570836,0.379231 0.627986,0.488864 0.9469592,0.220464 z m 5.5663649,0.964949 C 13.386452,13.145594 13.05695,12.66674 13.05695,11.961719 c 0,-0.683832 0.260762,-1.099322 0.860601,-1.371263 0.318881,-0.144566 0.90107,-0.176602 1.196394,-0.06583 0.615206,0.230753 0.981632,0.767233 0.979216,1.433661 -0.0018,0.489352 -0.155745,0.837174 -0.501655,1.133258 -0.424633,0.363475 -1.030066,0.473366 -1.562037,0.283523 z m 0.900658,-0.964949 c 0.245034,-0.206184 0.299154,-0.42747 0.170731,-0.698106 -0.185626,-0.391174 -0.630536,-0.472992 -0.932115,-0.171412 -0.538023,0.538026 0.180351,1.358428 0.761384,0.869518 z m 2.349702,0.957721 c -0.338173,-0.128955 -0.711161,-0.50165 -0.840203,-0.839543 -0.160101,-0.41922 -0.101029,-1.017522 0.138758,-1.405366 0.376561,-0.609076 1.252548,-0.84836 1.94932,-0.532473 0.599801,0.271924 0.855524,0.68262 0.858738,1.37916 0.0018,0.397055 -0.02274,0.496316 -0.189894,0.766667 -0.276697,0.447551 -0.675279,0.676719 -1.22789,0.705992 -0.284172,0.01505 -0.521368,-0.01058 -0.688829,-0.07443 z m 1.008766,-0.97848 c 0.0664,-0.06639 0.136554,-0.238803 0.155914,-0.383137 0.03095,-0.230806 0.0117,-0.285942 -0.159982,-0.457606 -0.320665,-0.320662 -0.831221,-0.209769 -0.969984,0.210676 -0.08883,0.269171 -0.01495,0.485864 0.231904,0.680027 0.212952,0.167506 0.547185,0.145005 0.742148,-0.04997 z m 1.598148,0.952036 c -0.398534,-0.24926 -0.428621,-0.755044 -0.06321,-1.062521 0.17307,-0.145629 0.245543,-0.165991 0.491943,-0.13822 0.373158,0.04207 0.581329,0.265514 0.581329,0.624 0,0.527291 -0.569347,0.852384 -1.010067,0.576741 z M 10.011722,11.321419 V 9.2404468 h 0.517604 0.517604 l -0.02138,0.7684452 c -0.01179,0.422646 -0.0088,0.768408 0.0065,0.76836 0.01532,-4.8e-5 0.09497,-0.06311 0.176953,-0.140133 0.231611,-0.217584 0.813354,-0.238815 1.107771,-0.04042 0.399361,0.269104 0.447993,0.453745 0.448107,1.701182 l 10e-5,1.104516 H 12.28948 11.813978 l -0.02068,-0.933732 c -0.01862,-0.836701 -0.03366,-0.943162 -0.145018,-1.024477 -0.181814,-0.132744 -0.398568,-0.110934 -0.512385,0.05156 -0.0785,0.112082 -0.09968,0.329674 -0.09968,1.024479 V 13.4024 H 10.52401 10.011772 Z m 10.468918,-0.782148 0.527829,-1.2668097 0.608264,-0.018228 0.608267,-0.018228 -0.527839,1.2668107 -0.527829,1.26681 -0.608268,0.01823 -0.608258,0.01823 z"
       id="path3239" /></g></svg>
